<?xml version="1.0" encoding="UTF-8" ?>
<!DOCTYPE svg PUBLIC "-//W3C//DTD SVG 1.1//EN" "http://www.w3.org/Graphics/SVG/1.1/DTD/svg11.dtd">
<svg width="2085pt" height="761pt" viewBox="0 0 2085 761" version="1.1" xmlns="http://www.w3.org/2000/svg">
<g id="#1ab6c2ff">
<path fill="#1ab6c2" opacity="1.00" d=" M 1517.05 189.17 C 1522.42 187.66 1528.11 188.65 1533.63 188.38 C 1533.61 191.38 1533.61 194.39 1533.62 197.39 C 1528.96 197.55 1524.25 196.80 1519.64 197.55 C 1515.27 198.91 1515.39 206.23 1520.03 207.11 C 1524.81 207.71 1529.67 207.22 1534.50 207.38 C 1534.49 210.34 1534.49 213.29 1534.49 216.25 C 1524.79 216.25 1515.08 216.25 1505.39 216.25 C 1505.36 213.29 1505.36 210.33 1505.38 207.37 C 1506.62 207.37 1507.88 207.38 1509.16 207.39 C 1507.11 200.53 1509.78 191.63 1517.05 189.17 Z" />
<path fill="#1ab6c2" opacity="1.00" d=" M 1326.37 227.25 C 1334.04 227.25 1341.70 227.25 1349.37 227.25 C 1349.39 262.37 1349.37 297.50 1349.38 332.62 C 1361.00 332.61 1372.63 332.61 1384.25 332.61 C 1384.24 325.10 1384.26 317.59 1384.24 310.08 C 1383.02 290.77 1396.77 271.97 1415.08 266.27 C 1420.85 264.39 1426.98 264.92 1432.96 264.89 C 1441.68 265.06 1450.41 265.07 1459.14 265.27 C 1465.23 265.22 1470.64 270.87 1470.26 276.97 C 1470.24 298.98 1470.26 320.99 1470.25 343.00 C 1470.35 347.19 1468.55 351.57 1464.91 353.83 C 1461.75 356.10 1457.70 355.41 1454.08 355.51 C 1419.14 355.54 1384.19 355.42 1349.26 355.56 C 1347.57 361.52 1346.02 367.99 1341.99 373.03 C 1330.11 389.85 1306.49 395.11 1287.55 388.65 C 1271.70 383.75 1259.46 368.66 1258.89 351.94 C 1258.56 337.76 1258.84 323.57 1258.75 309.38 C 1266.41 309.36 1274.08 309.38 1281.75 309.37 C 1281.76 322.57 1281.74 335.76 1281.75 348.95 C 1281.53 355.79 1285.60 362.39 1291.65 365.51 C 1298.62 369.07 1307.14 369.24 1314.43 366.48 C 1321.50 363.83 1326.55 356.59 1326.36 349.00 C 1326.39 308.42 1326.37 267.84 1326.37 227.25 M 1407.11 307.93 C 1407.13 316.16 1407.11 324.39 1407.13 332.63 C 1420.54 332.61 1433.96 332.64 1447.38 332.61 C 1447.38 317.75 1447.36 302.89 1447.38 288.03 C 1440.91 287.78 1434.43 287.89 1427.97 287.65 C 1417.01 286.87 1406.55 296.92 1407.11 307.93 Z" />
<path fill="#1ab6c2" opacity="1.00" d=" M 1555.51 227.24 C 1563.08 227.26 1570.66 227.24 1578.25 227.25 C 1578.26 252.83 1578.25 278.41 1578.25 303.99 C 1578.54 315.55 1577.02 327.46 1571.96 337.98 C 1567.92 346.44 1560.66 353.12 1552.14 356.92 C 1536.34 364.19 1518.80 365.83 1501.88 368.94 C 1500.56 361.40 1499.31 353.86 1498.02 346.32 C 1506.42 345.43 1514.66 343.59 1522.91 341.84 C 1522.44 306.33 1510.12 269.99 1484.95 244.36 C 1490.35 238.97 1495.75 233.59 1501.06 228.11 C 1528.44 255.64 1542.95 294.09 1545.52 332.44 C 1552.61 326.47 1555.45 316.99 1555.49 307.99 C 1555.51 281.07 1555.48 254.16 1555.51 227.24 Z" />
<path fill="#1ab6c2" opacity="1.00" d=" M 1601.25 227.25 C 1608.87 227.25 1616.49 227.25 1624.12 227.25 C 1624.13 269.96 1624.13 312.67 1624.12 355.37 C 1616.50 355.38 1608.88 355.37 1601.26 355.38 C 1601.23 312.67 1601.26 269.96 1601.25 227.25 Z" />
<path fill="#1ab6c2" opacity="1.00" d=" M 165.52 467.43 C 171.01 460.29 180.13 456.74 188.96 456.50 C 199.36 456.05 209.74 460.14 217.24 467.31 C 214.09 471.34 210.86 475.30 207.68 479.31 C 201.46 474.45 193.20 471.23 185.32 473.50 C 182.04 474.33 179.31 477.53 179.94 481.04 C 180.46 484.44 183.81 486.19 186.63 487.49 C 192.75 490.12 199.02 492.41 205.13 495.08 C 210.53 497.51 215.52 501.54 217.79 507.16 C 220.83 514.66 220.08 523.74 215.39 530.42 C 211.61 535.89 205.63 539.54 199.27 541.23 C 184.71 545.06 168.42 540.80 157.42 530.58 C 161.03 526.24 164.64 521.90 168.29 517.60 C 175.07 523.30 184.03 527.64 193.08 525.88 C 196.56 525.34 200.17 522.83 200.26 519.00 C 200.79 515.32 197.73 512.60 194.68 511.27 C 188.22 508.32 181.57 505.82 175.13 502.83 C 169.98 500.34 165.38 496.37 162.92 491.13 C 159.35 483.55 160.29 474.01 165.52 467.43 Z" />
<path fill="#1ab6c2" opacity="1.00" d=" M 335.25 457.18 C 345.42 455.40 356.56 456.84 365.14 462.89 C 373.13 468.43 378.01 477.55 379.84 486.96 C 381.74 496.92 381.44 507.44 378.36 517.14 C 375.30 527.00 368.17 535.79 358.48 539.72 C 345.22 545.05 328.54 543.24 317.97 533.16 C 309.78 525.39 306.16 513.97 305.62 502.94 C 305.04 491.74 306.88 479.85 313.58 470.59 C 318.62 463.43 326.68 458.69 335.25 457.18 M 338.37 473.48 C 330.42 475.81 326.39 484.24 325.39 491.89 C 324.19 501.47 324.77 512.21 330.79 520.20 C 335.79 527.03 346.54 528.33 353.03 522.92 C 358.90 518.11 360.99 510.23 361.53 502.96 C 361.98 494.73 361.22 485.73 356.06 478.95 C 352.08 473.61 344.65 471.54 338.37 473.48 Z" />
<path fill="#1ab6c2" opacity="1.00" d=" M 93.12 458.00 C 110.50 458.00 127.87 458.00 145.25 458.00 C 145.25 463.29 145.25 468.58 145.25 473.87 C 134.17 473.88 123.09 473.87 112.00 473.88 C 112.00 479.37 112.00 484.87 112.00 490.38 C 121.42 490.38 130.84 490.36 140.25 490.39 C 140.25 495.67 140.26 500.96 140.25 506.25 C 130.83 506.25 121.42 506.25 112.01 506.25 C 111.99 512.58 112.00 518.91 112.00 525.25 C 123.49 525.23 134.98 525.28 146.47 525.22 C 146.53 530.52 146.49 535.82 146.50 541.12 C 128.71 541.13 110.92 541.13 93.13 541.12 C 93.12 513.42 93.13 485.71 93.12 458.00 Z" />
<path fill="#1ab6c2" opacity="1.00" d=" M 233.62 458.00 C 243.75 458.01 253.88 457.96 264.01 458.02 C 272.74 458.25 282.23 459.99 288.66 466.38 C 295.31 473.15 296.26 483.63 294.32 492.51 C 292.48 500.97 285.72 507.76 277.62 510.50 C 269.61 513.61 260.90 512.77 252.50 512.88 C 252.50 522.28 252.48 531.68 252.52 541.09 C 246.22 541.17 239.92 541.11 233.63 541.12 C 233.62 513.41 233.62 485.71 233.62 458.00 M 252.50 473.00 C 252.50 481.29 252.50 489.58 252.50 497.87 C 258.20 497.61 264.18 498.70 269.64 496.57 C 277.41 493.72 279.05 482.02 273.56 476.38 C 267.64 471.66 259.50 473.34 252.50 473.00 Z" />
<path fill="#1ab6c2" opacity="1.00" d=" M 396.49 458.01 C 402.79 457.99 409.08 458.00 415.38 458.00 C 415.38 485.71 415.38 513.41 415.37 541.12 C 409.08 541.13 402.79 541.12 396.51 541.12 C 396.49 513.42 396.51 485.71 396.49 458.01 Z" />
<path fill="#1ab6c2" opacity="1.00" d=" M 434.88 458.00 C 445.59 458.02 456.31 457.95 467.03 458.03 C 475.44 458.32 484.60 460.03 490.71 466.30 C 496.91 472.80 497.80 482.69 496.06 491.13 C 494.54 498.62 489.04 504.83 482.15 507.92 C 488.39 519.00 494.67 530.05 500.92 541.12 C 493.86 541.13 486.81 541.12 479.75 541.13 C 474.44 531.18 469.19 521.20 463.88 511.25 C 460.50 511.24 457.12 511.24 453.74 511.27 C 453.76 521.22 453.75 531.17 453.75 541.12 C 447.46 541.13 441.17 541.12 434.88 541.12 C 434.87 513.42 434.87 485.71 434.88 458.00 M 453.75 473.00 C 453.75 480.75 453.74 488.50 453.75 496.24 C 459.96 496.00 466.61 497.16 472.42 494.37 C 480.00 490.94 480.74 477.54 472.56 474.43 C 466.56 472.20 460.01 473.24 453.75 473.00 Z" />
</g>
<g id="#000000ff">
<path fill="#000000" opacity="1.00" d=" M 348.88 227.26 C 356.50 227.25 364.12 227.25 371.75 227.25 C 371.73 245.93 371.79 264.61 371.72 283.30 C 375.24 274.68 383.33 268.73 392.13 266.32 C 398.26 264.41 404.74 264.92 411.07 264.88 C 422.74 265.10 434.42 265.01 446.09 265.32 C 451.91 265.62 456.78 271.12 456.50 276.92 C 456.50 295.48 456.50 314.05 456.50 332.61 C 467.66 332.61 478.82 332.61 489.99 332.63 C 490.03 297.50 489.98 262.37 490.01 227.25 C 497.63 227.25 505.25 227.25 512.87 227.25 C 512.88 266.18 512.86 305.12 512.88 344.05 C 513.21 349.96 507.93 355.36 502.08 355.49 C 416.39 355.53 330.70 355.47 245.02 355.52 C 238.82 355.90 233.08 350.29 233.37 344.08 C 233.37 325.35 233.38 306.63 233.37 287.90 C 227.65 287.86 221.54 286.79 216.14 289.21 C 211.83 291.32 211.05 296.66 211.01 300.97 C 210.99 314.98 210.96 329.00 211.11 343.02 C 211.44 349.24 206.58 355.70 200.01 355.50 C 185.66 355.50 171.32 355.53 156.97 355.48 C 145.65 355.30 134.00 351.18 126.32 342.60 C 119.50 335.16 116.81 324.87 116.52 314.99 C 116.35 303.65 118.99 292.29 124.07 282.16 C 130.81 285.69 137.59 289.16 144.31 292.74 C 140.01 302.14 137.63 313.16 140.87 323.25 C 143.26 329.75 150.58 332.44 157.00 332.63 C 167.37 332.94 177.74 332.45 188.11 332.62 C 188.16 322.06 188.08 311.49 188.14 300.93 C 188.27 291.71 190.65 282.01 197.17 275.17 C 203.97 267.84 214.25 264.92 224.00 264.87 C 231.03 264.87 238.07 265.10 245.11 265.26 C 251.16 265.26 256.39 270.94 256.13 276.94 C 256.13 295.50 256.11 314.06 256.14 332.63 C 267.75 332.59 279.37 332.62 290.99 332.63 C 291.03 311.21 290.97 289.79 291.01 268.37 C 298.59 268.38 306.17 268.37 313.74 268.38 C 313.75 289.79 313.75 311.20 313.75 332.61 C 325.45 332.64 337.16 332.59 348.87 332.63 C 348.89 297.50 348.86 262.38 348.88 227.26 M 382.78 292.81 C 376.47 296.63 372.05 303.56 371.80 311.00 C 371.65 318.20 371.80 325.40 371.75 332.61 C 392.33 332.64 412.92 332.63 433.50 332.61 C 433.50 317.75 433.49 302.89 433.51 288.03 C 424.68 287.74 415.85 287.83 407.03 287.66 C 398.72 287.32 389.97 288.30 382.78 292.81 Z" />
<path fill="#000000" opacity="1.00" d=" M 537.38 227.26 C 544.95 227.25 552.53 227.25 560.12 227.25 C 560.13 269.96 560.13 312.66 560.12 355.37 C 552.54 355.39 544.97 355.37 537.39 355.38 C 537.36 312.67 537.39 269.96 537.38 227.26 Z" />
<path fill="#000000" opacity="1.00" d=" M 1103.76 227.25 C 1111.38 227.25 1119.00 227.24 1126.62 227.26 C 1126.62 262.37 1126.63 297.49 1126.62 332.61 C 1139.19 332.56 1151.76 332.74 1164.33 332.52 C 1164.15 297.43 1164.30 262.34 1164.25 227.25 C 1171.87 227.25 1179.49 227.25 1187.12 227.25 C 1187.14 266.19 1187.10 305.12 1187.14 344.06 C 1187.36 348.51 1184.46 352.71 1180.47 354.51 C 1177.85 355.85 1174.83 355.46 1172.01 355.52 C 1069.84 355.46 967.67 355.56 865.50 355.46 C 862.31 369.80 856.75 384.43 845.46 394.37 C 834.70 404.01 819.98 407.98 805.76 407.79 C 805.74 400.15 805.74 392.51 805.76 384.88 C 814.34 384.88 823.36 382.83 829.87 376.91 C 836.15 371.46 839.40 363.54 841.88 355.81 C 828.95 357.37 815.82 357.15 802.97 355.02 C 797.19 354.05 790.95 353.45 786.11 349.83 C 783.62 348.07 782.07 345.13 782.14 342.08 C 782.10 330.05 782.11 318.01 782.14 305.98 C 782.42 288.67 794.62 272.58 810.95 267.09 C 818.62 264.17 826.92 264.96 834.96 264.87 C 841.30 264.91 847.65 264.81 854.00 264.90 C 860.93 265.03 867.07 271.05 867.43 277.96 C 867.64 296.18 869.31 314.39 868.24 332.62 C 879.03 332.60 889.82 332.61 900.62 332.62 C 900.63 310.37 900.61 288.13 900.63 265.88 C 908.21 265.87 915.79 265.87 923.37 265.88 C 923.36 271.83 923.43 277.79 923.31 283.75 C 927.96 271.52 941.44 264.90 953.97 264.87 C 968.35 264.90 982.73 265.08 997.12 265.28 C 1003.23 265.23 1008.55 270.91 1008.23 277.00 C 1008.28 295.54 1008.23 314.08 1008.26 332.62 C 1019.71 332.59 1031.16 332.63 1042.62 332.62 C 1042.63 311.21 1042.62 289.80 1042.62 268.39 C 1050.24 268.36 1057.87 268.38 1065.50 268.38 C 1065.50 289.79 1065.51 311.20 1065.50 332.61 C 1078.24 332.62 1090.99 332.61 1103.74 332.62 C 1103.76 297.50 1103.73 262.38 1103.76 227.25 M 804.88 308.01 C 805.01 316.03 805.02 324.06 805.00 332.10 C 818.19 335.02 831.99 334.23 845.22 331.99 C 845.91 317.25 845.26 302.50 844.79 287.76 C 837.85 287.86 830.91 287.54 823.98 287.67 C 813.52 287.94 804.64 297.61 804.88 308.01 M 933.44 293.50 C 927.64 297.45 923.74 304.09 923.48 311.15 C 923.24 318.30 923.44 325.46 923.38 332.62 C 944.00 332.62 964.63 332.64 985.25 332.61 C 985.25 317.75 985.25 302.89 985.25 288.03 C 975.51 287.71 965.75 287.83 956.00 287.61 C 948.16 287.53 940.00 288.98 933.44 293.50 Z" />
<path fill="#000000" opacity="1.00" d=" M 1033.42 228.61 C 1040.34 226.55 1048.30 231.62 1048.94 238.90 C 1049.99 245.17 1045.39 251.62 1039.12 252.64 C 1032.65 254.12 1025.60 249.45 1024.60 242.86 C 1023.32 236.77 1027.31 230.09 1033.42 228.61 Z" />
<path fill="#000000" opacity="1.00" d=" M 1062.38 228.49 C 1068.51 227.01 1075.42 230.82 1077.00 237.03 C 1079.17 243.58 1074.71 251.29 1067.91 252.56 C 1061.43 254.25 1054.17 249.68 1053.07 243.04 C 1051.64 236.70 1055.95 229.75 1062.38 228.49 Z" />
<path fill="#000000" opacity="1.00" d=" M 1767.54 240.63 C 1783.14 232.58 1800.87 228.66 1818.40 229.27 C 1818.05 236.89 1817.98 244.52 1817.55 252.13 C 1799.16 251.68 1780.27 257.10 1765.94 268.87 C 1761.22 272.66 1757.36 277.44 1754.43 282.73 C 1770.26 282.80 1786.10 282.67 1801.93 282.80 C 1810.69 283.14 1820.07 282.68 1828.03 286.97 C 1834.17 290.38 1836.55 297.63 1837.42 304.19 C 1838.99 317.09 1837.85 330.09 1838.14 343.04 C 1838.44 347.49 1836.16 352.02 1832.20 354.15 C 1829.12 356.01 1825.41 355.43 1822.02 355.51 C 1780.57 355.49 1739.13 355.51 1697.69 355.50 C 1694.37 370.11 1688.76 385.16 1676.99 395.09 C 1666.31 404.34 1651.91 407.95 1638.02 407.79 C 1637.98 400.15 1638.00 392.51 1638.01 384.87 C 1644.67 384.76 1651.52 383.74 1657.35 380.30 C 1664.81 376.21 1669.86 368.77 1672.61 360.87 C 1677.15 348.12 1677.54 334.40 1677.75 321.00 C 1677.98 307.11 1676.91 293.24 1676.92 279.35 C 1684.52 279.41 1692.12 279.36 1699.73 279.38 C 1699.94 297.12 1701.47 314.86 1700.50 332.61 C 1738.66 332.66 1776.82 332.53 1814.98 332.70 C 1815.21 326.77 1815.19 320.84 1815.00 314.92 C 1814.80 311.92 1814.47 308.02 1811.31 306.66 C 1808.33 305.56 1805.09 305.83 1801.99 305.68 C 1782.67 305.55 1763.35 305.68 1744.04 305.35 C 1738.39 305.10 1732.94 301.60 1730.80 296.30 C 1727.71 289.09 1729.58 280.77 1733.00 274.03 C 1740.33 259.38 1753.21 248.18 1767.54 240.63 Z" />
<path fill="#000000" opacity="1.00" d=" M 1682.40 235.62 C 1689.07 232.64 1697.77 236.82 1699.21 244.08 C 1700.94 250.50 1696.62 257.74 1690.06 259.01 C 1683.65 260.72 1676.44 256.35 1675.19 249.81 C 1673.81 244.17 1676.91 237.73 1682.40 235.62 Z" />
<path fill="#000000" opacity="1.00" d=" M 1936.73 308.96 C 1935.94 286.01 1956.48 263.55 1979.95 264.86 C 1990.66 264.97 2001.38 265.05 2012.10 265.30 C 2018.05 265.42 2023.10 270.99 2022.85 276.91 C 2022.90 298.64 2022.86 320.37 2022.87 342.10 C 2022.99 346.45 2021.53 351.22 2017.71 353.67 C 2014.29 356.23 2009.85 355.39 2005.90 355.50 C 1971.71 355.54 1937.52 355.42 1903.33 355.57 C 1900.18 370.10 1894.51 384.98 1882.93 394.90 C 1872.24 404.27 1857.73 407.96 1843.76 407.79 C 1843.74 400.15 1843.74 392.51 1843.76 384.87 C 1850.48 384.78 1857.38 383.68 1863.25 380.21 C 1870.28 376.27 1875.20 369.34 1877.97 361.88 C 1882.31 350.44 1883.06 338.05 1883.40 325.93 C 1883.89 310.41 1882.72 294.91 1882.60 279.39 C 1890.23 279.36 1897.86 279.38 1905.49 279.38 C 1905.61 297.13 1907.24 314.86 1906.23 332.61 C 1916.40 332.60 1926.57 332.61 1936.74 332.62 C 1936.74 324.73 1936.76 316.84 1936.73 308.96 M 1972.74 288.86 C 1965.50 291.80 1959.57 298.95 1959.73 307.01 C 1959.75 315.54 1959.75 324.06 1959.74 332.59 C 1973.11 332.67 1986.49 332.60 1999.86 332.63 C 1999.90 317.76 1999.84 302.90 1999.89 288.03 C 1994.93 287.80 1989.98 287.91 1985.03 287.76 C 1980.92 287.73 1976.61 287.14 1972.74 288.86 Z" />
<path fill="#000000" opacity="1.00" d=" M 741.50 268.38 C 749.12 268.38 756.75 268.36 764.38 268.39 C 764.40 293.91 764.32 319.43 764.43 344.95 C 764.25 350.76 758.82 355.76 753.01 355.50 C 731.21 355.51 709.40 355.49 687.60 355.51 C 684.43 369.65 679.10 384.12 668.08 394.07 C 657.31 404.04 642.29 408.00 627.88 407.78 C 627.87 400.15 627.87 392.51 627.88 384.88 C 636.49 384.87 645.43 382.76 652.06 376.99 C 660.51 369.69 664.09 358.47 665.86 347.79 C 669.30 325.13 666.95 302.17 666.88 279.38 C 674.50 279.37 682.12 279.38 689.75 279.38 C 689.77 297.12 691.50 314.85 690.46 332.60 C 707.47 332.60 724.49 332.65 741.50 332.61 C 741.49 311.20 741.50 289.79 741.50 268.38 Z" />
<path fill="#000000" opacity="1.00" d=" M 153.27 370.47 C 159.11 368.62 166.12 371.65 168.34 377.45 C 170.87 383.25 168.26 390.77 162.41 393.38 C 156.65 396.32 148.86 393.89 146.00 388.04 C 142.41 381.57 146.05 372.40 153.27 370.47 Z" />
<path fill="#000000" opacity="1.00" d=" M 181.36 370.59 C 187.20 368.53 194.41 371.47 196.71 377.33 C 199.42 383.21 196.63 390.96 190.60 393.50 C 184.75 396.32 176.92 393.70 174.26 387.70 C 171.05 381.36 174.47 372.67 181.36 370.59 Z" />
<path fill="#000000" opacity="1.00" d=" M 295.38 372.51 C 302.01 369.50 310.76 373.57 312.25 380.81 C 314.24 387.65 309.14 395.40 302.00 396.08 C 295.30 397.26 288.42 391.90 288.02 385.10 C 287.43 379.89 290.50 374.50 295.38 372.51 Z" />
<path fill="#000000" opacity="1.00" d=" M 714.37 372.52 C 720.68 370.63 728.12 374.52 729.67 381.03 C 731.74 387.57 727.31 395.13 720.57 396.43 C 714.10 398.12 706.86 393.58 705.71 386.97 C 704.32 380.85 708.23 374.08 714.37 372.52 Z" />
<path fill="#000000" opacity="1.00" d=" M 742.41 372.63 C 749.52 370.16 758.01 375.43 758.48 383.05 C 759.42 389.45 754.47 395.87 748.05 396.60 C 741.85 397.71 735.31 393.28 734.17 387.07 C 732.74 381.08 736.44 374.36 742.41 372.63 Z" />
<path fill="#000000" opacity="1.00" d=" M 1705.18 435.74 C 1709.51 439.85 1713.72 444.11 1718.05 448.23 C 1710.32 454.92 1702.60 461.61 1694.88 468.30 C 1691.76 465.21 1688.66 462.11 1685.58 459.00 C 1692.10 451.23 1698.63 443.48 1705.18 435.74 Z" />
<path fill="#000000" opacity="1.00" d=" M 1055.38 449.66 C 1061.50 447.31 1070.10 450.81 1070.44 458.00 C 1071.35 464.79 1064.21 469.79 1057.95 468.62 C 1053.02 468.28 1048.50 464.08 1048.65 458.98 C 1048.47 454.79 1051.37 450.84 1055.38 449.66 Z" />
<path fill="#000000" opacity="1.00" d=" M 1449.34 449.60 C 1456.14 446.94 1465.48 452.07 1464.18 460.02 C 1463.27 469.63 1448.77 471.73 1443.91 464.09 C 1440.46 458.96 1443.26 451.11 1449.34 449.60 Z" />
<path fill="#000000" opacity="1.00" d=" M 1813.18 449.21 C 1816.89 448.56 1821.12 449.34 1823.86 452.11 C 1827.30 455.49 1827.48 461.63 1824.23 465.20 C 1819.11 470.93 1807.62 469.62 1805.21 461.87 C 1803.18 456.28 1807.34 449.90 1813.18 449.21 Z" />
<path fill="#000000" opacity="1.00" d=" M 976.76 451.76 C 983.04 451.74 989.33 451.74 995.62 451.76 C 995.63 481.53 995.60 511.30 995.64 541.07 C 990.49 541.18 985.35 541.11 980.20 541.11 C 979.74 538.96 979.29 536.83 978.85 534.69 C 975.59 537.52 972.07 540.22 967.91 541.54 C 959.11 544.45 948.68 541.32 942.96 534.01 C 936.60 525.91 935.20 515.04 935.97 505.05 C 936.81 494.32 942.37 483.25 952.42 478.47 C 960.60 474.37 970.99 476.11 977.43 482.62 C 976.35 472.36 976.85 462.04 976.76 451.76 M 962.57 492.54 C 957.94 494.76 955.90 500.05 955.34 504.86 C 954.85 510.47 954.87 516.47 957.40 521.64 C 959.11 525.25 963.07 527.52 967.07 527.15 C 971.04 527.21 974.32 524.63 976.74 521.72 C 976.62 512.98 977.01 504.22 976.56 495.50 C 972.83 492.30 967.27 490.60 962.57 492.54 Z" />
<path fill="#000000" opacity="1.00" d=" M 1771.01 451.75 C 1777.29 451.74 1783.58 451.74 1789.87 451.75 C 1789.87 481.54 1789.88 511.33 1789.87 541.12 C 1784.70 541.06 1779.54 541.28 1774.39 540.98 C 1773.99 538.86 1773.55 536.75 1773.10 534.65 C 1769.37 538.09 1765.02 541.08 1760.00 542.14 C 1751.69 543.88 1742.48 540.72 1737.24 534.00 C 1731.46 526.74 1729.86 517.08 1730.06 508.04 C 1730.27 498.26 1733.85 488.08 1741.59 481.74 C 1747.34 476.83 1755.60 474.94 1762.87 477.21 C 1766.25 478.18 1769.03 480.43 1771.72 482.62 C 1770.62 472.36 1771.09 462.04 1771.01 451.75 M 1757.30 492.35 C 1752.27 494.40 1750.14 500.06 1749.59 505.08 C 1749.09 510.76 1749.17 516.88 1751.91 522.05 C 1753.79 525.70 1758.02 527.66 1762.05 527.10 C 1765.74 526.96 1768.64 524.41 1770.98 521.80 C 1771.06 513.10 1770.90 504.40 1771.07 495.71 C 1767.39 492.51 1762.04 490.67 1757.30 492.35 Z" />
<path fill="#000000" opacity="1.00" d=" M 1966.63 451.76 C 1972.87 451.74 1979.12 451.74 1985.37 451.75 C 1985.37 474.49 1985.39 497.23 1985.36 519.97 C 1985.44 522.10 1985.14 524.56 1986.62 526.33 C 1987.62 527.83 1989.58 527.15 1991.11 527.30 C 1991.87 531.91 1992.60 536.52 1993.35 541.14 C 1987.11 543.05 1979.82 543.59 1974.00 540.20 C 1968.25 536.65 1966.72 529.31 1966.63 523.03 C 1966.62 499.27 1966.62 475.51 1966.63 451.76 Z" />
<path fill="#000000" opacity="1.00" d=" M 1013.35 453.63 C 1019.69 453.62 1026.04 453.62 1032.39 453.63 C 1031.92 461.08 1032.24 468.60 1030.97 475.98 C 1029.96 482.65 1029.03 489.32 1028.04 495.99 C 1024.57 496.01 1021.11 496.01 1017.65 495.97 C 1016.70 489.26 1015.72 482.56 1014.73 475.86 C 1013.47 468.52 1013.77 461.04 1013.35 453.63 Z" />
<path fill="#000000" opacity="1.00" d=" M 563.72 457.68 C 576.03 454.25 589.83 458.02 598.66 467.25 C 595.36 471.32 592.02 475.35 588.70 479.40 C 584.42 475.51 578.99 472.32 573.01 472.81 C 565.50 473.09 559.09 478.59 556.35 485.36 C 552.88 493.83 552.95 503.55 555.59 512.23 C 557.67 519.17 563.48 525.29 570.92 526.09 C 578.14 527.29 585.14 523.68 589.99 518.54 C 593.31 522.49 596.63 526.44 599.94 530.40 C 587.81 545.31 563.87 546.36 549.13 534.82 C 541.10 528.65 536.44 518.93 535.02 509.06 C 533.34 497.44 534.67 484.98 540.81 474.78 C 545.79 466.35 554.20 460.02 563.72 457.68 Z" />
<path fill="#000000" opacity="1.00" d=" M 1572.00 458.00 C 1578.86 458.02 1585.73 457.93 1592.60 458.06 C 1598.69 475.45 1605.68 492.55 1610.83 510.26 C 1612.88 505.91 1613.68 501.10 1615.33 496.59 C 1619.77 483.70 1624.39 470.87 1628.93 458.00 C 1635.78 458.00 1642.64 457.98 1649.51 458.02 C 1649.46 485.72 1649.57 513.43 1649.45 541.14 C 1643.71 541.10 1637.98 541.14 1632.26 541.12 C 1632.26 531.07 1632.21 521.03 1632.28 510.99 C 1632.36 501.25 1633.78 491.60 1634.68 481.92 C 1628.44 499.25 1622.27 516.62 1615.79 533.87 C 1612.27 533.88 1608.76 533.88 1605.26 533.87 C 1598.77 516.63 1592.51 499.31 1586.55 481.89 C 1587.35 491.60 1588.91 501.26 1588.88 511.03 C 1588.86 521.06 1588.88 531.09 1588.87 541.12 C 1583.24 541.13 1577.62 541.13 1572.01 541.12 C 1571.99 513.41 1572.00 485.71 1572.00 458.00 Z" />
<path fill="#000000" opacity="1.00" d=" M 755.28 461.01 C 760.47 460.99 765.67 461.00 770.88 461.01 C 770.87 466.58 770.87 472.16 770.88 477.74 C 775.92 477.76 780.96 477.73 786.00 477.76 C 785.99 482.71 786.01 487.67 785.99 492.63 C 780.95 492.62 775.91 492.61 770.88 492.63 C 770.88 501.09 770.85 509.54 770.88 518.00 C 770.89 521.14 771.61 524.76 774.45 526.60 C 777.66 528.65 781.66 527.58 785.07 526.67 C 786.04 531.24 787.09 535.80 788.01 540.38 C 779.64 542.80 770.04 544.12 762.00 539.95 C 755.24 536.31 752.44 528.35 752.14 521.08 C 751.82 511.60 752.09 502.11 751.99 492.63 C 749.12 492.62 746.25 492.61 743.38 492.62 C 743.37 487.92 743.37 483.23 743.38 478.54 C 746.61 478.29 749.85 478.04 753.09 477.82 C 753.83 472.22 754.55 466.61 755.28 461.01 Z" />
<path fill="#000000" opacity="1.00" d=" M 618.34 483.27 C 628.50 474.22 645.77 473.60 655.70 483.29 C 663.78 491.53 664.99 504.12 663.19 515.00 C 650.56 515.02 637.93 514.97 625.31 515.02 C 626.33 519.78 628.97 524.48 633.58 526.55 C 640.65 529.86 648.93 527.90 655.41 524.10 C 657.49 527.87 659.52 531.67 661.66 535.41 C 651.81 542.22 638.70 544.69 627.28 540.66 C 619.67 538.11 613.31 532.23 610.15 524.87 C 604.32 511.15 606.65 493.24 618.34 483.27 M 628.60 494.64 C 626.62 496.81 625.83 499.70 625.08 502.46 C 632.69 502.53 640.30 502.49 647.91 502.49 C 647.67 499.01 647.05 495.11 644.16 492.78 C 639.56 489.27 632.28 490.20 628.60 494.64 Z" />
<path fill="#000000" opacity="1.00" d=" M 693.50 485.96 C 698.20 481.59 703.69 477.59 710.19 476.59 C 716.28 475.64 723.29 476.66 727.69 481.36 C 732.34 486.29 733.56 493.38 733.74 499.92 C 733.77 513.65 733.74 527.38 733.75 541.11 C 727.50 541.13 721.25 541.12 715.01 541.12 C 714.95 528.38 715.09 515.63 714.94 502.90 C 714.73 499.41 714.50 494.84 710.92 493.07 C 705.25 490.73 698.87 494.25 695.58 498.84 C 695.31 512.95 695.71 527.08 695.39 541.19 C 689.18 541.04 682.96 541.17 676.76 541.12 C 676.74 520.00 676.74 498.88 676.76 477.76 C 681.87 477.74 686.98 477.74 692.09 477.75 C 692.54 480.49 693.03 483.22 693.50 485.96 Z" />
<path fill="#000000" opacity="1.00" d=" M 825.38 478.34 C 830.11 475.69 835.91 475.77 840.96 477.45 C 839.94 482.90 838.84 488.33 837.85 493.78 C 834.46 493.12 830.89 492.24 827.50 493.35 C 822.52 494.96 818.93 499.47 817.25 504.29 C 816.94 516.55 817.23 528.84 817.12 541.12 C 810.83 541.13 804.54 541.13 798.25 541.12 C 798.24 520.00 798.26 498.88 798.25 477.76 C 803.33 477.71 808.42 477.83 813.51 477.67 C 814.20 481.46 814.53 485.31 815.03 489.15 C 817.63 484.86 820.82 480.68 825.38 478.34 Z" />
<path fill="#000000" opacity="1.00" d=" M 855.20 483.25 C 865.71 473.87 884.01 473.58 893.61 484.44 C 900.75 492.73 901.75 504.59 900.04 515.00 C 887.41 515.02 874.78 514.95 862.15 515.03 C 863.19 519.77 865.81 524.46 870.40 526.53 C 877.48 529.86 885.78 527.90 892.26 524.10 C 894.34 527.91 896.47 531.70 898.49 535.56 C 889.58 541.38 878.40 544.16 867.90 541.75 C 858.80 539.89 850.72 533.53 847.03 524.97 C 841.17 511.22 843.46 493.26 855.20 483.25 M 865.11 495.05 C 863.33 497.16 862.63 499.87 861.91 502.47 C 869.52 502.52 877.14 502.51 884.76 502.48 C 884.49 499.05 883.93 495.22 881.12 492.89 C 876.40 489.11 868.72 490.25 865.11 495.05 Z" />
<path fill="#000000" opacity="1.00" d=" M 1102.03 486.07 C 1107.55 480.46 1114.78 475.48 1123.05 476.31 C 1129.90 476.30 1136.21 480.54 1139.04 486.75 C 1143.31 482.33 1148.23 478.03 1154.42 476.72 C 1161.34 475.29 1169.55 477.05 1173.82 483.10 C 1178.57 489.69 1178.67 498.23 1178.63 506.03 C 1178.61 517.72 1178.63 529.42 1178.62 541.11 C 1172.33 541.13 1166.04 541.13 1159.76 541.12 C 1159.69 528.07 1159.84 515.02 1159.68 501.97 C 1159.55 498.36 1158.63 493.62 1154.55 492.63 C 1149.36 491.24 1144.84 494.96 1141.38 498.34 C 1141.36 512.60 1141.39 526.86 1141.37 541.12 C 1135.08 541.13 1128.79 541.12 1122.51 541.12 C 1122.46 528.41 1122.54 515.69 1122.48 502.97 C 1122.34 499.27 1121.91 494.31 1117.87 492.80 C 1112.55 490.95 1107.74 494.84 1104.15 498.28 C 1104.09 512.56 1104.15 526.84 1104.12 541.12 C 1097.83 541.13 1091.54 541.13 1085.25 541.12 C 1085.25 520.00 1085.25 498.88 1085.25 477.76 C 1090.37 477.74 1095.50 477.73 1100.63 477.77 C 1101.07 480.53 1101.55 483.30 1102.03 486.07 Z" />
<path fill="#000000" opacity="1.00" d=" M 1193.57 484.60 C 1203.72 478.37 1216.03 474.59 1227.95 477.00 C 1234.27 478.21 1239.98 482.41 1242.65 488.33 C 1246.54 496.31 1245.68 505.39 1245.75 513.98 C 1245.74 523.03 1245.75 532.07 1245.75 541.12 C 1240.62 541.11 1235.50 541.18 1230.39 541.07 C 1229.94 538.86 1229.49 536.65 1229.03 534.46 C 1225.17 537.64 1220.95 540.65 1216.02 541.87 C 1209.61 543.59 1202.16 542.43 1197.23 537.80 C 1191.54 532.48 1190.00 523.60 1192.62 516.41 C 1194.47 511.40 1198.94 507.88 1203.68 505.74 C 1211.02 502.42 1219.07 501.18 1227.02 500.31 C 1226.74 496.71 1224.92 492.86 1221.16 491.87 C 1213.80 489.87 1206.58 493.60 1200.28 497.03 C 1198.06 492.88 1195.79 488.75 1193.57 484.60 M 1212.38 516.41 C 1209.54 518.37 1208.47 522.61 1210.46 525.53 C 1212.16 527.81 1215.33 528.21 1217.98 527.93 C 1221.59 527.57 1224.40 525.05 1226.98 522.72 C 1227.00 519.04 1227.01 515.36 1226.99 511.68 C 1221.96 512.56 1216.60 513.31 1212.38 516.41 Z" />
<path fill="#000000" opacity="1.00" d=" M 1268.20 481.29 C 1275.96 475.86 1286.16 475.24 1295.12 477.60 C 1302.85 477.97 1310.62 477.63 1318.37 477.76 C 1318.38 482.37 1318.37 486.99 1318.37 491.62 C 1315.07 491.62 1311.78 491.64 1308.50 491.60 C 1311.93 499.09 1310.64 508.79 1304.65 514.62 C 1298.13 520.63 1288.37 522.12 1279.90 520.44 C 1275.26 518.41 1273.84 527.10 1278.15 528.13 C 1285.90 530.23 1294.10 528.37 1302.01 529.42 C 1307.86 530.09 1314.50 531.97 1317.60 537.46 C 1320.96 543.87 1319.50 552.27 1314.57 557.49 C 1308.80 563.74 1300.22 566.44 1292.00 567.46 C 1283.17 568.29 1273.76 568.32 1265.62 564.35 C 1260.27 561.90 1256.60 556.02 1257.62 550.08 C 1258.23 544.97 1262.39 541.40 1266.56 538.93 C 1263.42 536.55 1260.79 533.12 1260.74 529.03 C 1260.18 523.62 1263.77 518.97 1267.80 515.83 C 1262.58 511.90 1259.09 505.62 1259.25 499.01 C 1259.15 492.11 1262.43 485.18 1268.20 481.29 M 1282.38 489.51 C 1276.46 491.84 1275.75 499.82 1278.04 504.98 C 1280.09 510.07 1287.57 511.23 1291.26 507.30 C 1294.39 503.77 1294.65 498.39 1293.09 494.11 C 1291.61 489.90 1286.43 487.88 1282.38 489.51 M 1276.07 542.82 C 1274.41 544.81 1272.42 547.18 1273.14 549.98 C 1273.95 553.55 1277.86 554.96 1281.06 555.56 C 1286.57 556.38 1292.61 556.39 1297.63 553.63 C 1299.89 552.37 1302.03 549.81 1301.19 547.05 C 1300.67 544.86 1298.24 544.06 1296.28 543.81 C 1289.56 543.01 1282.74 544.13 1276.07 542.82 Z" />
<path fill="#000000" opacity="1.00" d=" M 1334.49 483.61 C 1344.64 474.20 1362.34 473.47 1372.36 483.42 C 1380.31 491.68 1381.48 504.15 1379.76 514.98 C 1367.11 515.05 1354.46 514.94 1341.82 515.03 C 1342.87 519.58 1345.24 524.17 1349.62 526.30 C 1356.75 529.95 1365.31 528.01 1371.91 524.09 C 1374.02 527.90 1376.13 531.71 1378.18 535.56 C 1369.35 541.27 1358.36 544.12 1347.95 541.83 C 1338.78 540.05 1330.56 533.78 1326.80 525.18 C 1320.87 511.56 1323.01 493.72 1334.49 483.61 M 1344.90 494.89 C 1343.07 497.04 1342.28 499.79 1341.60 502.47 C 1349.22 502.52 1356.84 502.50 1364.47 502.48 C 1364.12 499.16 1363.67 495.43 1361.02 493.08 C 1356.39 489.13 1348.61 490.13 1344.90 494.89 Z" />
<path fill="#000000" opacity="1.00" d=" M 1419.66 478.72 C 1424.52 475.79 1430.77 475.50 1436.00 477.61 C 1434.81 482.97 1433.85 488.38 1432.83 493.78 C 1428.23 492.65 1422.93 492.03 1418.93 495.11 C 1414.98 498.10 1411.48 502.82 1412.10 508.03 C 1412.15 519.06 1412.12 530.09 1412.12 541.12 C 1405.83 541.13 1399.54 541.13 1393.26 541.12 C 1393.25 520.00 1393.25 498.88 1393.25 477.76 C 1398.37 477.74 1403.49 477.75 1408.61 477.75 C 1409.08 481.55 1409.54 485.34 1410.01 489.15 C 1412.48 485.08 1415.45 481.12 1419.66 478.72 Z" />
<path fill="#000000" opacity="1.00" d=" M 1486.93 482.94 C 1497.42 473.94 1515.24 473.69 1524.78 484.22 C 1532.13 492.47 1533.05 504.42 1531.50 514.91 C 1518.85 515.13 1506.18 514.91 1493.53 515.02 C 1494.54 519.69 1497.10 524.33 1501.59 526.43 C 1508.69 529.90 1517.10 527.94 1523.63 524.09 C 1525.71 527.89 1527.79 531.69 1529.88 535.49 C 1520.39 541.87 1508.10 544.49 1497.02 541.16 C 1488.73 538.82 1481.63 532.65 1478.29 524.70 C 1472.52 510.85 1474.98 492.80 1486.93 482.94 M 1496.71 494.77 C 1494.80 496.92 1494.02 499.76 1493.29 502.47 C 1500.89 502.52 1508.50 502.50 1516.12 502.49 C 1515.91 498.96 1515.23 494.99 1512.26 492.70 C 1507.61 489.23 1500.33 490.27 1496.71 494.77 Z" />
<path fill="#000000" opacity="1.00" d=" M 1675.59 482.71 C 1686.01 473.97 1703.45 473.80 1712.95 484.01 C 1720.44 492.29 1721.49 504.38 1719.82 514.97 C 1707.17 515.05 1694.52 514.95 1681.88 515.03 C 1682.92 519.57 1685.29 524.16 1689.67 526.28 C 1696.79 529.95 1705.38 528.01 1711.98 524.09 C 1714.05 527.92 1716.25 531.69 1718.19 535.60 C 1709.64 541.10 1699.11 543.95 1689.00 542.02 C 1679.45 540.47 1670.75 534.09 1666.85 525.16 C 1660.75 511.15 1663.25 492.59 1675.59 482.71 M 1684.97 494.90 C 1683.13 497.04 1682.34 499.80 1681.67 502.47 C 1689.28 502.51 1696.89 502.51 1704.51 502.47 C 1704.23 498.88 1703.55 494.84 1700.44 492.56 C 1695.74 489.23 1688.50 490.35 1684.97 494.90 Z" />
<path fill="#000000" opacity="1.00" d=" M 1845.32 487.33 C 1855.84 474.99 1876.71 472.11 1889.23 483.07 C 1886.28 487.14 1883.29 491.18 1880.31 495.22 C 1878.33 493.85 1876.38 492.27 1874.00 491.77 C 1868.37 490.56 1862.20 493.45 1859.54 498.55 C 1856.33 504.57 1856.19 512.05 1858.60 518.38 C 1860.44 523.12 1864.80 527.04 1870.03 527.35 C 1874.67 527.76 1878.89 525.33 1882.55 522.72 C 1884.95 526.87 1887.45 530.97 1889.92 535.10 C 1876.62 546.70 1853.17 544.88 1843.27 529.74 C 1835.27 517.11 1835.53 498.96 1845.32 487.33 Z" />
<path fill="#000000" opacity="1.00" d=" M 1898.78 484.68 C 1908.60 478.45 1920.58 474.83 1932.24 476.82 C 1938.07 477.78 1943.63 481.07 1946.70 486.23 C 1950.67 492.73 1951.13 500.61 1951.01 508.04 C 1950.98 519.07 1951.01 530.09 1950.99 541.12 C 1945.88 541.14 1940.78 541.10 1935.69 541.15 C 1935.15 538.92 1934.66 536.70 1934.20 534.47 C 1930.31 537.69 1926.05 540.70 1921.08 541.91 C 1914.67 543.57 1907.20 542.40 1902.32 537.69 C 1896.91 532.62 1895.41 524.32 1897.48 517.37 C 1898.95 512.45 1902.93 508.72 1907.42 506.47 C 1915.11 502.53 1923.80 501.30 1932.28 500.25 C 1931.89 496.65 1930.06 492.72 1926.22 491.83 C 1918.88 489.90 1911.75 493.66 1905.47 497.02 C 1903.25 492.90 1901.03 488.78 1898.78 484.68 M 1917.49 516.48 C 1914.73 518.45 1913.64 522.57 1915.61 525.46 C 1917.27 527.77 1920.43 528.22 1923.10 527.95 C 1926.72 527.62 1929.55 525.08 1932.12 522.74 C 1932.10 519.06 1932.12 515.37 1932.11 511.69 C 1927.06 512.56 1921.68 513.33 1917.49 516.48 Z" />
<path fill="#000000" opacity="1.00" d=" M 2010.45 483.33 C 2020.90 473.93 2039.13 473.54 2048.80 484.27 C 2056.07 492.56 2057.09 504.50 2055.42 514.98 C 2042.78 515.04 2030.14 514.96 2017.50 515.02 C 2018.54 519.70 2021.05 524.42 2025.63 526.47 C 2032.73 529.87 2041.09 527.94 2047.60 524.09 C 2049.67 527.89 2051.76 531.68 2053.83 535.49 C 2044.09 542.04 2031.38 544.63 2020.10 540.88 C 2011.69 538.24 2004.70 531.58 2001.69 523.30 C 1996.79 509.86 1999.22 492.94 2010.45 483.33 M 2020.73 494.73 C 2018.78 496.89 2017.99 499.74 2017.25 502.47 C 2024.87 502.52 2032.49 502.50 2040.12 502.49 C 2039.83 498.98 2039.21 495.04 2036.27 492.74 C 2031.64 489.23 2024.36 490.25 2020.73 494.73 Z" />
<path fill="#000000" opacity="1.00" d=" M 1050.13 477.75 C 1056.41 477.74 1062.70 477.75 1068.99 477.75 C 1069.00 498.87 1069.00 520.00 1068.99 541.12 C 1062.70 541.13 1056.41 541.13 1050.13 541.12 C 1050.12 520.00 1050.12 498.88 1050.13 477.75 Z" />
<path fill="#000000" opacity="1.00" d=" M 1443.88 477.76 C 1450.17 477.74 1456.45 477.74 1462.75 477.76 C 1462.75 498.88 1462.75 520.00 1462.75 541.12 C 1456.45 541.13 1450.16 541.13 1443.88 541.12 C 1443.87 520.00 1443.87 498.88 1443.88 477.76 Z" />
<path fill="#000000" opacity="1.00" d=" M 1806.25 477.76 C 1812.49 477.73 1818.74 477.75 1824.99 477.75 C 1825.00 498.88 1825.00 520.00 1824.99 541.12 C 1818.74 541.13 1812.49 541.13 1806.26 541.12 C 1806.24 520.00 1806.26 498.88 1806.25 477.76 Z" />
</g>
</svg>
