<?xml version="1.0" encoding="UTF-8" standalone="no"?>
<svg
   xmlns:dc="http://purl.org/dc/elements/1.1/"
   xmlns:cc="http://creativecommons.org/ns#"
   xmlns:rdf="http://www.w3.org/1999/02/22-rdf-syntax-ns#"
   xmlns:svg="http://www.w3.org/2000/svg"
   xmlns="http://www.w3.org/2000/svg"
   xmlns:sodipodi="http://sodipodi.sourceforge.net/DTD/sodipodi-0.dtd"
   xmlns:inkscape="http://www.inkscape.org/namespaces/inkscape"
   width="973.35144pt"
   height="973.34979pt"
   viewBox="0 0 973.35147 973.34983"
   version="1.1"
   id="svg586"
   sodipodi:docname="uatl_applogo_whitebg.svg"
   inkscape:version="1.0.1 (3bc2e813f5, 2020-09-07)">
  <metadata
     id="metadata592">
    <rdf:RDF>
      <cc:Work
         rdf:about="">
        <dc:format>image/svg+xml</dc:format>
        <dc:type
           rdf:resource="http://purl.org/dc/dcmitype/StillImage" />
        <dc:title></dc:title>
      </cc:Work>
    </rdf:RDF>
  </metadata>
  <defs
     id="defs590" />
  <sodipodi:namedview
     pagecolor="#ffffff"
     bordercolor="#666666"
     borderopacity="1"
     objecttolerance="10"
     gridtolerance="10"
     guidetolerance="10"
     inkscape:pageopacity="0"
     inkscape:pageshadow="2"
     inkscape:window-width="1920"
     inkscape:window-height="1009"
     id="namedview588"
     showgrid="false"
     inkscape:zoom="0.70710678"
     inkscape:cx="451.8766"
     inkscape:cy="740.6315"
     inkscape:window-x="-8"
     inkscape:window-y="-8"
     inkscape:window-maximized="1"
     inkscape:current-layer="svg586"
     inkscape:document-rotation="0"
     lock-margins="true"
     fit-margin-top="0"
     fit-margin-left="0"
     fit-margin-right="0"
     fit-margin-bottom="0" />
  <text
     xml:space="preserve"
     style="font-size:59.328px;line-height:1.25;font-family:'Noto Kufi Arabic';-inkscape-font-specification:'Noto Kufi Arabic';stroke-width:0.927"
     x="98.289223"
     y="133.34935"
     id="text954"><tspan
       sodipodi:role="line"
       id="tspan952"
       x="98.289223"
       y="133.34935"
       style="font-size:59.328px;stroke-width:0.927" /></text>
  <path
     fill="#000000"
     opacity="1"
     d="m 440.8295,7.0296977 c 80.13438,-7.61257231 162.19597,4.9144393 236.14392,36.8679563 67.74224,29.120493 128.56566,74.082856 176.38028,130.203896 43.78678,51.28365 76.70389,111.83733 95.66793,176.57308 34.26618,115.74962 23.01116,244.31533 -31.58744,352.06693 C 872.54891,792.39645 798.92865,867.30797 710.02546,913.65814 606.30178,968.54552 482.16865,982.74945 368.51969,953.87936 300.62331,936.80414 236.63921,904.56152 182.44532,860.27353 130.3137,817.85519 87.220783,764.41301 56.809072,704.49534 20.962459,634.11278 3.0970154,554.74935 5.0050454,475.80989 6.5660774,398.70128 27.091054,322.0745 64.383067,254.56352 98.668549,192.19826 147.00351,137.63828 204.70488,95.971495 273.62274,45.979069 356.03123,14.873537 440.8295,7.0296977"
     id="path594-0"
     style="fill:#ffffff;fill-opacity:1;stroke:none;stroke-width:0.7425;stroke-miterlimit:4;stroke-dasharray:none;stroke-opacity:1"
     sodipodi:nodetypes="ccccccccccccc" />
  <g
     id="g654"
     transform="matrix(1.8540001,0,0,1.8540001,-604.8259,-665.16235)">
    <g
       id="#000000ff">
      <path
         fill="#000000"
         opacity="1"
         d="m 565.54,372.79 c 41.58,-3.95 84.16,2.55 122.53,19.13 35.15,15.11 66.71,38.44 91.52,67.56 22.72,26.61 39.8,58.03 49.64,91.62 17.78,60.06 11.94,126.77 -16.39,182.68 -23.29,46.52 -61.49,85.39 -107.62,109.44 -53.82,28.48 -118.23,35.85 -177.2,20.87 -35.23,-8.86 -68.43,-25.59 -96.55,-48.57 -27.05,-22.01 -49.41,-49.74 -65.19,-80.83 -18.6,-36.52 -27.87,-77.7 -26.88,-118.66 0.81,-40.01 11.46,-79.77 30.81,-114.8 17.79,-32.36 42.87,-60.67 72.81,-82.29 35.76,-25.94 78.52,-42.08 122.52,-46.15 m 14.84,4.69 c -31.79,1.1 -63.35,8.51 -92.29,21.73 -31.25,14.19 -59.37,35.13 -82.06,60.88 -25.76,29.07 -44.35,64.42 -53.77,102.1 -10.34,41.4 -9.67,85.53 2.04,126.57 9.91,34.78 27.67,67.3 51.63,94.38 23.66,26.88 53.24,48.52 86.11,62.74 31.7,13.83 66.39,20.67 100.96,20.11 53.92,-0.58 107.37,-19.85 149.29,-53.75 41.87,-33.49 72.23,-81.08 84.65,-133.26 8.78,-36.61 8.99,-75.24 0.63,-111.95 -7.78,-34.04 -23,-66.36 -44.29,-94.04 -21.57,-28.04 -49.19,-51.45 -80.56,-67.82 -37.42,-19.74 -80.07,-29.3 -122.34,-27.69 z"
         id="path594" />
      <path
         fill="#000000"
         opacity="1"
         d="m 570.44,431.7 c 22.29,-1.84 44.93,-0.4 66.62,5.24 37.96,9.61 72.76,31.09 98.53,60.56 24.52,27.84 40.87,62.8 46.33,99.52 4.89,33.03 1.53,67.35 -10.39,98.59 -18.85,50.47 -59.63,92.14 -109.62,112.17 -32.76,13.25 -69.14,17.47 -104.03,11.82 -37.46,-5.8 -73.02,-22.99 -100.98,-48.56 -28.56,-25.91 -49.2,-60.44 -58.3,-97.92 -10.16,-41.27 -6.47,-85.86 10.62,-124.79 14.84,-34.16 39.72,-63.85 70.69,-84.51 26.86,-18.06 58.3,-29.2 90.53,-32.12 m 10.86,3.74 c -39.86,1.32 -79.11,15.73 -110.45,40.37 -29.98,23.41 -52.78,55.9 -64.34,92.15 -13.06,40.58 -12.06,85.57 2.98,125.48 12.79,34.45 35.91,64.89 65.43,86.73 29.49,21.91 65.45,35.01 102.14,37.07 34.65,2.16 69.84,-5.37 100.54,-21.61 24.9,-13.09 46.79,-31.82 63.72,-54.27 17.39,-23.02 29.44,-50.06 34.9,-78.39 6.81,-35.19 3.64,-72.32 -9.43,-105.72 -13.63,-35.35 -38.17,-66.3 -69.27,-87.89 -33.69,-23.53 -75.15,-35.64 -116.22,-33.92 z"
         id="path596" />
      <path
         fill="#000000"
         opacity="1"
         d="m 778.4,525.18 c 1.54,-0.26 3.09,-0.46 4.67,-0.59 6.22,10.19 11.9325,24.615 16.6025,35.535 -4.85875,1.9704 -2.49807,-0.84808 -5.2025,-1.805 -4.42,-11.47 -9.48,-22.75 -16.07,-33.14 z"
         id="path598"
         style="fill:#009700;fill-opacity:1"
         sodipodi:nodetypes="ccccc" />
      <path
         fill="#000000"
         opacity="1"
         d="m 376.47,558.94 c 4.01,-11.42 9.23,-22.47 15.51,-32.81 1.29,0.16 2.59,0.32 3.89,0.5 0.03,0.29 0.08,0.88 0.1,1.17 -6.02,10.26 -11.84711,23.07293 -16.03711,34.21293 -1.37,-0.41 -2.06289,-2.78293 -3.46289,-3.07293 z"
         id="path600"
         style="fill:#009700;fill-opacity:1"
         sodipodi:nodetypes="cccccc" />
      <path
         fill="#000000"
         opacity="1"
         d="m 801.76,583.82 c 1.35,-0.32 2.68,-0.79 3.97,-1.34 0.48,2.08 0.95,4.18 1.22,6.31 -1.35,0.82 -2.62,1.78 -3.69,2.95 -0.48,-2.65 -0.94,-5.3 -1.5,-7.92 z"
         id="path602"
         style="fill:#009700;fill-opacity:1" />
      <path
         fill="#000000"
         opacity="1"
         d="m 369.19,584.15 c 7.42373,-0.53174 4.16856,2.72173 2.59,9.19 -1.18,-1.08 -2.45,-2.06 -3.76,-2.97 0.19,-2.11 0.63,-4.19 1.17,-6.22 z"
         id="path604"
         style="fill:#009700;fill-opacity:1"
         sodipodi:nodetypes="cccc" />
      <path
         fill="#000000"
         opacity="1"
         d="m 805.8,611.72 c 1.29,0.68 2.66,1.27 4.07,1.75 0.21,2.28 0.52839,6.1568 0.25839,8.4468 -1.32,-0.09 -2.55161,0.45033 -3.85161,0.57033 C 806.01678,619.60713 805.63,614.6 805.8,611.72 Z"
         id="path606"
         style="fill:#009700;fill-opacity:1"
         sodipodi:nodetypes="ccccc" />
      <path
         fill="#000000"
         opacity="1"
         d="m 365.08,615.2 c 1.35,-0.52 2.68,-1.08 4.03,-1.61 0.58,2.7 0.0842,7.03583 -0.0758,9.82583 -1.42,-0.12 -2.88419,-1.45583 -4.29419,-1.33583 0.04,-2.3 -0.07,-4.62 0.34,-6.88 z"
         id="path608"
         style="fill:#009700;fill-opacity:1"
         sodipodi:nodetypes="ccccc" />
      <path
         fill="#000000"
         opacity="1"
         d="m 804.79,646.41 c 2.50983,-0.40236 2.97212,-0.49588 4.3875,-0.99625 -1.23,8.1 -2.6675,18.13625 -4.7775,26.06625 -1.48,0.24 -2.97,0.42 -4.43,0.67 2.08,-8.48 3.75,-17.12 4.82,-25.74 z"
         id="path610"
         style="fill:#009700;fill-opacity:1"
         sodipodi:nodetypes="ccccc" />
      <path
         fill="#000000"
         opacity="1"
         d="m 363.96,648.31 c 2.12,0.47 4.52097,-0.65227 6.43,-1.88777 0.92,8.66 2.76,18.94777 4.72,27.41777 -1.44,-0.18 -2.87,-0.33 -4.29,-0.54 -2.69,-7.81 -3.68,-16.39 -4.82,-24.64 -0.51,-0.09 -1.53,-0.26 -2.04,-0.35 z"
         id="path612"
         style="fill:#009700;fill-opacity:1"
         sodipodi:nodetypes="cccccc" />
    </g>
    <g
       id="#009700ff">
      <path
         fill="#009700"
         opacity="1"
         d="m 794.47,558.32 c 0.34,-0.12 1.03,-0.36 1.37,-0.48 5.93,-1.49 12.71,1.2 15.43,6.81 3.39,6.22 0.62,14.52 -5.54,17.83 -1.29,0.55 -2.62,1.02 -3.97,1.34 -6.64,1.16 -13.68,-3.28 -15.17,-9.9 -1.73,-6.28 1.97,-13.11 7.88,-15.6 z"
         id="path615" />
      <path
         fill="#009700"
         opacity="1"
         d="m 363.21,567.29 c 2.04,-5.29 7.68,-8.55 13.26,-8.35 1.4,0.29 2.8,0.63 4.17,1.04 6.24,2.55 9.85,10.08 7.58,16.5 -1.87,6.15 -8.56,10.19 -14.88,9.08 -1.42,-0.38 -2.81,-0.84 -4.15,-1.41 -5.84,-3.12 -8.67,-10.75 -5.98,-16.86 z"
         id="path617" />
      <path
         fill="#009700"
         opacity="1"
         d="m 799.17183,589.14355 c 4.88,-2.43 11.18,-1.84 15.22,1.95 5.09,4.36 5.83,12.77 1.56,17.95 -3.13,4.21 -8.83,5.95 -13.86,4.78 -1.41,-0.48 -2.78,-1.07 -4.07,-1.75 -6.39,-4.43 -7.74,-14.13 -2.54,-19.98 1.07,-1.17 2.34,-2.13 3.69,-2.95 z"
         id="path619" />
      <path
         fill="#009700"
         opacity="1"
         d="m 354.6,600.48 c 1.1,-8.77 11.76,-13.98 19.45,-9.72 11.15984,5.9341 9.19961,22.9935 -2.94,24.83 -8.89,2.57 -18.4,-5.99 -16.51,-15.11 z"
         id="path621"
         sodipodi:nodetypes="cccc" />
      <path
         fill="#009700"
         opacity="1"
         d="m 795.24,630.87 c 0.97,-5.35 5.63,-9.42 10.86,-10.46 1.3,-0.12 2.62,-0.13 3.94,-0.04 6.43,1.01 11.8,6.94 11.41,13.58 0.04,7.02 -6.29,12.93 -13.2,12.99 -1.19,-0.1 -2.34,-0.21 -3.46,-0.53 -6.64,-1.58 -11.18,-8.89 -9.55,-15.54 z"
         id="path623" />
      <path
         fill="#009700"
         opacity="1"
         d="m 353.51,634.08 c 0.42,-5.97 5.34,-11.13 11.23,-12 1.41,-0.12 2.83,-0.11 4.25,0.01 6.87,1.04 12.12,8.03 11.03,14.93 -0.63,5.23 -4.62,9.68 -9.63,11.17 -2.13,0.44 -4.31,0.59 -6.43,0.12 -6.39,-1.28 -11.19,-7.73 -10.45,-14.23 z"
         id="path625" />
    </g>
  </g>
  <g
     id="g956"
     transform="matrix(1.9281601,0,0,1.9281601,-648.9721,-707.67336)">
    <g
       id="#000000ff-1">
      <path
         fill="#000000"
         opacity="1"
         d="m 478.28,498.55 c 75.14,-0.07 150.28,-0.21 225.42,-0.2 0.05,4.47 0.17,8.95 0.43,13.42 -1.82,0 -3.62,0 -5.42,0.01 -0.01,5.98 -0.01,11.96 0,17.94 6.4,-0.01 12.81,-0.04 19.21,0.03 -5.17,7.21 -10.43,14.36 -15.66,21.53 -1.67,1.83 -1.07,4.42 -1.18,6.68 0.04,30.56 0.035,61.12 0.0287,91.68 -0.006,30.56 -0.0137,61.12 0.0213,91.68 -13.37,0.04 -26.73,-0.02 -40.09,-0.01 -0.56,-23.77 0.28,-47.54 0.15,-71.32 -0.1,-13.28 0.24,-26.55 0.25,-39.82 -2.7,-2.37 -5.41,-4.71 -8.13,-7.03 2.93,-0.02 5.88,-0.02 8.83,-0.02 -0.41,-4.35 0.33,-8.95 -1.51,-13.05 -5.44,-13.8 -14.18,-26.58 -26.27,-35.36 -12.72,-9.35 -28.65,-14.06 -44.37,-13.82 -16.73,2.18 -34.07,5.99 -47.84,16.27 -13.58,10.15 -20.19,27.55 -19.92,44.17 -2.52388,1.31654 5.27744,3.77479 -0.7,9.74 0.09,36.76 -0.21,73.51 0.13,110.26 -12.49,-0.01 -24.97,0.02 -37.46,0 0.25,-63.01 0.51,-126 0.67,-189.01 -6.92,-7.5 -13.71,-15.11 -20.64,-22.61 6.68,0 13.35,-0.01 20.03,0.01 -0.14,-5.84 -0.14,-11.69 -0.22,-17.53 -1.93,-0.04 -3.85,-0.06 -5.76,-0.08 -0.02,-4.52 -0.02,-9.04 0,-13.56 m 2.55,2.66 c 0,2.79 0,5.59 0.01,8.39 73.55,-0.25 147.12,-0.62 220.67,-0.32 -0.13,-2.81 -0.24,-5.62 -0.29,-8.42 -73.46,-0.01 -146.92,0.49 -220.39,0.35 m 5.72,10.96 c 0.06,5.53 0.2,11.05 0.28,16.57 69.78,0.25 139.56,0.55 209.34,0.63 -0.01,-5.89 -0.01,-11.79 -0.01,-17.68 -69.87,0.1 -139.74,0.32 -209.61,0.48 m -16.43,20.11 c 1.42,1.68 2.88,3.34 4.33,5.01 78.29,0.12 156.59,-0.02 234.88,0.07 1.22,-1.68 2.42,-3.37 3.64,-5.06 -80.95,-0.13 -161.9,-0.09 -242.85,-0.02 m 6.87,7.54 c 3.24,3.51 6.41,7.09 9.65,10.61 71.04,-0.05 142.07,0.01 213.11,-0.03 2.52,-3.55 5.1,-7.05 7.64,-10.58 -76.8,-0.01 -153.6,-0.02 -230.4,0 m 10.54,13.08 c -0.03,2.77 -0.04,5.55 -0.04,8.32 7.13,0.05 14.25,-0.2 21.38,-0.1 0.04,-2.75 0.04,-5.48 0,-8.22 -7.12,0.05 -14.23,0.04 -21.34,0 m 23.97,0.33 c 0.03,2.67 0.07,5.34 0.11,8.02 7.57,0 15.14,-0.01 22.72,0 -0.05,-2.68 -0.09,-5.35 -0.12,-8.02 -7.57,0.01 -15.14,0 -22.71,0 m 25.27,-0.14 c 0.05,2.69 0.1,5.37 0.14,8.07 h 22.78 c -0.05,-2.75 -0.09,-5.5 -0.15,-8.24 -7.59,0.07 -15.19,-0.21 -22.77,0.17 m 25.49,-0.18 c -0.03,2.76 -0.04,5.52 -0.05,8.28 2.49,0.04 5.07,-0.24 7.46,0.66 5.26,-1.04 10.47,-2.35 15.81,-2.95 0.01,-2.01 0.01,-4 0.02,-5.99 -7.75,0.12 -15.49,0.05 -23.24,0 m 25.89,0.32 c -0.02,1.7 -0.03,3.4 -0.04,5.12 5.82,-0.33 11.67,0.19 17.39,1.3 9.43,2.61 19.29,1.04 28.92,1.46 0.01,-2.63 0.01,-5.26 0.01,-7.89 -15.43,0.03 -30.85,0.01 -46.28,0.01 m 49.03,-0.11 c 0,2.59 0,5.18 -0.01,7.78 7.75,-0.01 15.51,0 23.27,-0.01 0,-2.59 0.01,-5.18 0.01,-7.77 -7.76,-0.01 -15.51,0 -23.27,0 m 25.96,-0.21 c -0.04,2.73 -0.04,5.46 0,8.2 7.75,0.12 15.5,-0.55 23.25,-0.03 0.02,-2.73 0.02,-5.45 0.01,-8.17 h -23.26 m 25.97,0.17 c 0,2.67 0.01,5.35 0.05,8.03 3.08,-0.01 6.15,-0.01 9.24,0 0,-2.69 0.01,-5.37 0.01,-8.05 -3.1,0.01 -6.2,0.01 -9.3,0.02 m -69.29,10.58 c 5.63,2.23 10.78,5.42 15.91,8.58 4.01,0.28 8.04,0.03 12.06,0.1 -0.01,-2.91 -0.01,-5.82 0.01,-8.72 -9.33,0.04 -18.65,-0.04 -27.98,0.04 m -132.35,7.75 c 3.04,-0.01 6.08,-0.01 9.12,0 0.03,-2.52 0.05,-5.04 0.07,-7.55 -3.04,-0.01 -6.08,-0.02 -9.11,-0.05 -0.05,2.53 -0.07,5.06 -0.08,7.6 m 11.82,-7.56 c -0.04,2.51 -0.08,5.02 -0.11,7.54 15.48,0.15 30.98,-0.27 46.46,0.23 5.27,-3.25 11.03,-5.54 16.81,-7.68 -21.05,-0.1 -42.11,-0.09 -63.16,-0.09 m 151.14,8.49 h 21.36 c -0.01,-2.91 -0.01,-5.81 0.01,-8.71 -7.13,0 -14.25,0 -21.37,-0.01 v 8.72 m 23.96,0.15 c 8.01,0.07 16.01,-0.1 24.02,-0.17 -0.01,-2.9 -0.01,-5.8 0.01,-8.69 -8.01,0 -16.01,0.03 -24.02,0.02 0,2.94 0,5.89 -0.01,8.84 m -186.89,1.6 c 0,3.34 -0.02,6.68 -0.03,10.03 h 22.85 c -0.05,-3.33 -0.09,-6.66 -0.1,-9.98 -7.58,0.05 -15.15,-0.07 -22.72,-0.05 m 25.33,0.01 c 0.03,3.28 0.05,6.56 0.04,9.85 6.12,0.38 12.25,0.02 18.37,0.26 3.14,-3.8 6.67,-7.27 10.7,-10.14 -9.71,0.02 -19.41,-0.02 -29.11,0.03 m 126.09,0.8 c 3.7,2.93 6.71,6.6 10.13,9.8 4.13,0.26 8.27,0 12.41,0.1 v -9.89 c -7.52,-0.01 -15.03,0 -22.54,-0.01 m 25.2,0.01 c -0.02,3.29 -0.02,6.59 -0.02,9.89 7.23,-0.01 14.47,0 21.7,0 -0.01,-3.3 -0.02,-6.6 -0.03,-9.89 -7.22,-0.01 -14.43,0 -21.65,0 m 24.22,0.1 c 0.03,3.26 0.03,6.52 0.02,9.79 3.35,-0.02 6.7,-0.02 10.06,0.01 v -9.9 c -3.37,-0.03 -6.73,-0.03 -10.08,0.1 M 487.4,594.69 c 3.17,-0.01 6.34,-0.01 9.52,0 0.02,-2.67 0.02,-5.35 0.03,-8.02 h -9.49 c -0.03,2.67 -0.05,5.34 -0.06,8.02 m 12.23,-7.56 c -0.04,2.48 -0.07,4.95 -0.09,7.44 8.49,-0.09 16.98,0.2 25.48,0.1 1.35,-2.74 2.82,-5.43 4.44,-8.02 -9.96,-0.33 -19.88,0.7 -29.83,0.48 m 151.35,0.27 c 1.75,2.38 3.4,4.84 5.03,7.32 5.14,-0.06 10.29,-0.03 15.44,-0.03 -0.01,-2.43 -0.01,-4.86 0,-7.29 -6.83,0.01 -13.65,0.02 -20.47,0 m 23.13,0 c 0,2.43 0,4.87 0.01,7.32 8.1,-0.02 16.21,-0.01 24.31,-0.01 -0.01,-2.44 -0.01,-4.89 0,-7.32 -8.11,0.02 -16.22,0 -24.32,0.01 m -186.75,9.94 c -0.01,2.5 -0.02,5.01 -0.03,7.52 7.52,0 15.04,-0.09 22.57,-0.05 -0.01,-2.49 -0.01,-4.98 0,-7.46 -7.51,0.02 -15.03,-0.01 -22.54,-0.01 m 25.16,0 v 7.52 c 3,-0.01 6,-0.01 9.01,0 0.74,-2.53 1.54,-5.04 2.39,-7.53 -3.8,0.01 -7.6,0.01 -11.4,0.01 m 144.94,-0.02 c 1.43,2.62 2.76,5.29 4.03,7.99 7.9,-0.02 15.8,0 23.71,0 -0.01,-2.67 -0.01,-5.33 0,-7.99 -9.25,0 -18.5,0.05 -27.74,0 m 30.22,0.03 c 0,2.64 0,5.3 0.01,7.95 h 10.74 c -0.01,-2.66 -0.01,-5.31 0,-7.96 -3.59,0 -7.17,0 -10.75,0.01 M 487.55,607.5 c 0,2.47 0.01,4.95 0.01,7.43 2.94,-0.01 5.88,-0.01 8.82,0.01 0,-2.49 0,-4.97 0.01,-7.45 -2.95,0.01 -5.9,0.01 -8.84,0.01 m 11.64,0.08 c 0.01,2.47 0.02,4.95 0.05,7.43 6.73,-0.16 13.47,-0.17 20.21,0 0.38,-2.51 0.83,-5.02 1.27,-7.51 -7.18,0.02 -14.36,0.11 -21.53,0.08 m 163.4,0.29 c 1.14,2.65 1.94,5.44 2.02,8.35 2.38,-0.01 4.77,-0.01 7.16,0 0,-2.79 -0.01,-5.56 -0.02,-8.34 -3.06,0 -6.12,0 -9.16,-0.01 m 11.82,0.01 c -0.02,2.78 -0.02,5.56 -0.01,8.35 8.01,-0.31 16.12,0.64 24.07,-0.54 -0.05,-2.61 -0.06,-5.21 -0.07,-7.82 -8,0.01 -16,0 -23.99,0.01 m -187.17,13.59 c 7.98,-0.01 15.95,0.03 23.93,-0.03 -0.09,-0.9 -0.28,-2.72 -0.37,-3.63 -7.84,0.22 -15.67,-0.27 -23.51,-0.22 -0.02,1.28 -0.04,2.57 -0.05,3.88 m 26.29,-3.87 c 0.02,0.97 0.08,2.9 0.11,3.87 2,0 4.01,-0.01 6.03,0.01 0.01,-1.31 0.03,-2.61 0.06,-3.89 -2.08,-0.01 -4.14,0 -6.2,0.01 m 151.06,1.18 c 0.03,0.91 0.07,2.73 0.09,3.64 11.25,-0.01 22.5,-0.02 33.75,0 v -3.64 c -11.28,0.01 -22.56,0 -33.84,0 m -177.34,5.36 c -0.01,1.57 -0.02,3.14 -0.02,4.72 10.94,0 21.88,-0.01 32.82,0.01 1.67,-1.69 3.33,-3.4 4.97,-5.11 -12.57,0.81 -25.18,0.2 -37.77,0.38 m 173.07,1.74 c 1.76,1.13 3.19,3.43 5.53,3.28 10.85,0.03 21.7,-0.02 32.56,0.01 0,-1.37 0.01,-2.73 0.02,-4.08 -12.7,0.36 -25.48,-0.78 -38.11,0.79 m -173.1,5.6 c -0.01,1.45 -0.01,2.9 -0.01,4.37 10.55,-0.01 21.09,-0.01 31.64,0 0,-1.47 0,-2.92 0.01,-4.37 h -31.64 m 176.85,0.28 c 0,1.87 0,3.75 0.01,5.64 11.35,-0.01 22.7,0 34.05,-0.01 0,-1.89 0,-3.76 0.01,-5.63 -11.36,-0.01 -22.71,0 -34.07,0 m -176.57,6.82 c 0,2.53 0.01,5.07 0.01,7.62 7.97,-0.01 15.95,-0.01 23.92,0 0,-2.55 0,-5.09 0.01,-7.63 -7.98,0.02 -15.96,0 -23.94,0.01 m 26.68,-0.04 c 0.01,2.55 0.01,5.1 0.02,7.66 1.53,-0.01 3.08,-0.01 4.63,0 0,-2.56 0.01,-5.11 0.02,-7.66 -1.56,-0.01 -3.12,-0.01 -4.67,0 m 149.96,1.34 c -0.11,2.27 -0.22,4.53 -0.28,6.81 11.52,-0.11 23.05,-0.29 34.57,-0.46 -0.02,-2.12 -0.02,-4.23 -0.03,-6.34 -11.42,0 -22.84,0.01 -34.26,-0.01 m -176.96,8.85 c 0,3.57 0,7.15 -0.01,10.73 2.56,-0.01 5.12,-0.01 7.69,0 -0.06,-3.58 -0.08,-7.16 -0.1,-10.73 h -7.58 m 10.39,10.59 c 7.06,-0.03 14.12,-0.04 21.19,0.17 -0.01,-3.6 -0.01,-7.2 -0.02,-10.79 -7.12,0.18 -14.24,0.16 -21.36,0.11 -0.02,3.5 0.07,7 0.19,10.51 m 166.37,-9.95 c -0.02,2.74 -0.03,5.49 -0.02,8.24 2.61,0 5.24,-0.01 7.87,-0.01 -0.01,-2.8 -0.01,-5.59 0,-8.38 -2.63,0.04 -5.24,0.08 -7.85,0.15 m 10.45,-0.19 v 8.38 c 7.92,-0.04 15.84,0.01 23.76,-0.06 -0.02,-2.91 -0.02,-5.81 -0.02,-8.71 -7.91,0.14 -15.83,0.37 -23.74,0.39 m -10.49,11.1 c -0.01,3.09 -0.02,6.18 -0.04,9.27 7.51,0.12 15.03,0.15 22.56,0.26 -0.01,-3.22 -0.01,-6.44 0,-9.66 -7.51,0.07 -15.01,0.03 -22.52,0.13 m 25.23,-0.12 v 9.66 c 2.99,0.01 5.99,0.04 9,0.04 -0.01,-3.24 -0.01,-6.48 0,-9.71 -3.01,-0.01 -6.01,0 -9,0.01 m -201.96,1.92 v 7.52 c 7.88,-0.01 15.76,-0.03 23.64,0 0.13,-2.5 0.29,-5 0.4,-7.49 -8.01,-0.09 -16.02,0.01 -24.04,-0.03 m 26.57,-0.16 c -0.08,2.55 -0.17,5.11 -0.27,7.67 1.79,0 3.6,0 5.41,0.01 -0.01,-2.57 -0.03,-5.13 -0.06,-7.69 -1.7,0 -3.39,-0.01 -5.08,0.01 m -26.6,10.29 c 0,2.64 0,5.29 0.01,7.94 2.69,0.01 5.37,-0.04 8.06,-0.24 -0.08,-2.59 -0.2,-5.16 -0.36,-7.73 -2.57,0.02 -5.14,0.02 -7.71,0.03 m 10.44,0.2 c 0.02,2.55 0.04,5.11 0.07,7.68 6.86,-0.06 13.73,-0.01 20.59,0.05 0,-2.67 0,-5.32 0.01,-7.98 -6.89,0.3 -13.78,0.28 -20.67,0.25 m 166.27,-0.19 c -0.01,2.49 -0.03,4.98 -0.01,7.48 2.43,-0.01 4.87,-0.01 7.32,0 -0.01,-2.48 -0.01,-4.96 0,-7.43 -2.44,-0.03 -4.88,-0.05 -7.31,-0.05 m 9.91,0.17 c -0.01,2.48 -0.01,4.96 0,7.44 8.14,-0.01 16.29,0.01 24.43,-0.01 -0.01,-2.45 -0.02,-4.9 -0.02,-7.34 -8.14,-0.07 -16.28,-0.05 -24.41,-0.09 m -9.96,9.92 c -0.02,2.66 -0.03,5.33 -0.04,8.01 7.04,-0.01 14.08,-0.01 21.12,0 -0.01,-2.63 -0.01,-5.26 0,-7.88 -7.03,0.05 -14.06,-0.1 -21.08,-0.13 m -176.63,0.39 c 0.01,2.47 0.01,4.95 0.02,7.43 7.99,-0.01 15.99,-0.04 23.99,-0.03 0,-2.45 0,-4.89 0.01,-7.33 -8.01,0.03 -16.01,-0.05 -24.02,-0.07 m 26.58,0.01 c -0.01,2.47 -0.01,4.94 0,7.42 1.69,-0.01 3.4,-0.01 5.11,0 0,-2.48 0,-4.96 0.01,-7.43 -1.71,0 -3.43,0 -5.12,0.01 m 173.82,-0.3 c -0.01,2.63 -0.01,5.27 0,7.91 3.55,-0.01 7.1,0 10.66,0 -0.02,-2.63 -0.03,-5.25 -0.03,-7.87 -3.55,-0.02 -7.09,-0.03 -10.63,-0.04 m -200.66,10.33 c -0.01,2.62 -0.02,5.24 -0.02,7.87 2.84,0.03 5.69,0.04 8.54,0.05 -0.01,-2.66 -0.01,-5.3 -0.01,-7.94 -2.84,-0.01 -5.67,0 -8.51,0.02 m 11.18,0.03 c -0.17,2.61 -0.22,5.22 -0.21,7.85 6.85,0.06 13.7,0.01 20.56,0.03 -0.01,-2.66 -0.01,-5.31 -0.01,-7.95 -6.78,0.12 -13.56,0.14 -20.34,0.07 m 165.71,0.08 c -0.02,2.76 -0.03,5.52 -0.02,8.29 2.48,-0.18 4.98,-0.3 7.49,-0.36 -0.01,-2.65 -0.01,-5.3 -0.01,-7.94 -2.49,0 -4.98,0 -7.46,0.01 m 10.32,0.27 c -0.01,2.56 -0.01,5.12 0,7.69 8.05,-0.02 16.1,-0.02 24.15,-0.21 -0.02,-2.59 -0.03,-5.17 -0.04,-7.75 -8.04,-0.18 -16.07,0.51 -24.11,0.27 M 487.11,703.3 c 0,2.61 -0.01,5.23 0,7.86 7.86,-0.01 15.71,-0.01 23.57,0 0,-2.54 0.01,-5.08 0.02,-7.61 -7.86,0.14 -15.72,-0.2 -23.59,-0.25 m 26.21,-0.04 c 0,2.63 0,5.26 0.01,7.89 1.83,0 3.68,0 5.53,0.01 0,-2.64 0,-5.27 0.01,-7.9 -1.86,-0.01 -3.71,0 -5.55,0 m 174.24,0.08 v 7.56 c 3.58,-0.01 7.16,0 10.75,0.01 -0.02,-2.56 -0.03,-5.11 -0.03,-7.66 -3.58,0.02 -7.15,0.06 -10.72,0.09 m -23.82,0.31 c -0.01,2.4 -0.01,4.8 -0.01,7.21 7.05,-0.01 14.1,0.01 21.16,0.03 -0.01,-2.44 -0.01,-4.88 0.01,-7.31 -7.06,0.03 -14.11,0 -21.16,0.07 m -0.31,9.71 c -0.05,8.57 -0.1,17.14 -0.04,25.72 11.71,0.16 23.41,0.17 35.12,0.19 -0.02,-8.58 -0.01,-17.16 0,-25.73 -11.7,-0.13 -23.39,-0.18 -35.08,-0.18 m -176.62,0.31 v 25.88 c 10.75,0.16 21.49,-0.2 32.24,-0.33 0.03,-8.52 0.01,-17.03 0.01,-25.54 -10.75,-0.04 -21.5,-0.02 -32.25,-0.01 z"
         id="path713"
         sodipodi:nodetypes="ccccccccscccccccccccccccccccccccccccccccccccccccccccccccccccccccccccccccccccccccccccccccccccccccccccccccccccccccccccccccccccccccccccccccccccccccccccccccccccccccccccccccccccccccccccccccccccccccccccccccccccccccccccccccccccccccccccccccccccccccccccccccccccccccccccccccccccccccccccccccccccccccccccccccccccccccccccccccccccccccccccccccccccccccccccccccccccccccccccccccccccccccccccccccccccc" />
      <path
         fill="#000000"
         opacity="1"
         d="m 484.14,745.9 c 0.06,-0.56 0.17,-1.69 0.22,-2.25 72.18,0.04 144.35,0 216.53,0.02 0.82,2.86 -2.41,1.96 -3.89,2.21 -70.95,-0.07 -141.9,0.13 -212.86,0.02 z"
         id="path715" />
      <path
         fill="#000000"
         opacity="1"
         d="m 484.27,748.01 c 72.21,-0.01 144.43,-0.02 216.65,0 -0.1,2.16 -0.19,4.33 -0.27,6.51 -72.13,0.02 -144.26,0.07 -216.39,0.1 0,-2.21 0,-4.42 0.01,-6.61"
         id="path717"
         sodipodi:nodetypes="ccccc" />
      <path
         fill="#000000"
         opacity="1"
         d="m 478.28,498.55 c 75.14,-0.07 150.28,-0.21 225.42,-0.2 0.05,4.47 0.17,8.95 0.43,13.42 -1.82,0 -3.62,0 -5.42,0.01 -0.01,5.98 -0.01,11.96 0,17.94 6.4,-0.01 12.81,-0.04 19.21,0.03 -5.17,7.21 -10.43,14.36 -15.66,21.53 -1.67,1.83 -1.07,4.42 -1.18,6.68 0.04,30.56 0.035,61.12 0.0287,91.68 -0.006,30.56 -0.0137,61.12 0.0213,91.68 -13.37,0.04 -26.73,-0.02 -40.09,-0.01 -0.56,-23.77 0.28,-47.54 0.15,-71.32 -0.1,-13.28 0.24,-26.55 0.25,-39.82 -2.7,-2.37 -5.41,-4.71 -8.13,-7.03 2.93,-0.02 5.88,-0.02 8.83,-0.02 -0.41,-4.35 0.33,-8.95 -1.51,-13.05 -5.44,-13.8 -14.18,-26.58 -26.27,-35.36 -12.72,-9.35 -28.65,-14.06 -44.37,-13.82 -16.73,2.18 -34.07,5.99 -47.84,16.27 -13.58,10.15 -20.19,27.55 -19.92,44.17 11.2324,0.34188 0.54087,0.03 11.77327,0.37193 -3.5,3.5 -8.99327,5.84807 -12.47327,9.36807 0.09,36.76 -0.21,73.51 0.13,110.26 -12.49,-0.01 -24.92751,-1.63728 -37.41751,-1.65728 0.004,-0.98453 0.008,-1.96906 0.0117,-2.95358 0.004,-0.98452 0.008,-1.96904 0.0117,-2.95355 0.004,-0.98451 0.008,-1.96902 0.0118,-2.95353 0.004,-0.9845 0.008,-1.969 0.0118,-2.95349 0.004,-0.9845 0.008,-1.96899 0.0118,-2.95347 0.004,-0.98449 0.008,-1.96897 0.0118,-2.95345 0.004,-0.98448 0.008,-1.96895 0.0118,-2.95342 0.004,-0.98447 0.008,-1.96894 0.0118,-2.9534 0.004,-0.98447 0.008,-1.96892 0.0118,-2.95338 0.004,-0.98446 0.008,-1.96891 0.0117,-2.95336 0.004,-0.98445 0.008,-1.96889 0.0117,-2.95333 0.004,-0.98445 0.008,-1.96888 0.0117,-2.95332 0.004,-0.98444 0.008,-1.96887 0.0117,-2.9533 0.004,-0.98443 0.008,-1.96886 0.0117,-2.95328 0.004,-0.98443 0.008,-1.96885 0.0117,-2.95327 0.004,-0.98442 0.008,-1.96883 0.0116,-2.95325 0.004,-0.98441 0.008,-1.96882 0.0116,-2.95323 0.004,-0.98441 0.008,-1.96882 0.0116,-2.95322 0.004,-0.98441 0.008,-1.96881 0.0116,-2.95321 0.004,-0.9844 0.008,-1.9688 0.0115,-2.9532 0.004,-0.98439 0.008,-1.96879 0.0115,-2.95318 0.004,-0.9844 0.008,-1.96879 0.0114,-2.95318 0.004,-0.98439 0.008,-1.96878 0.0114,-2.95317 0.004,-0.98438 0.008,-1.96877 0.0114,-2.95315 0.004,-0.98439 0.008,-1.96877 0.0113,-2.95315 0.004,-0.98439 0.008,-1.96877 0.0113,-2.95315 0.004,-0.98438 0.007,-1.96876 0.0112,-2.95314 0.004,-0.98438 0.007,-1.96875 0.0112,-2.95313 0.004,-0.98438 0.007,-1.96876 0.0111,-2.95313 0.004,-0.98438 0.007,-1.96875 0.0111,-2.95313 0.004,-0.98438 0.007,-1.96875 0.011,-2.95313 0.004,-0.98437 0.007,-1.96875 0.0109,-2.95312 0.004,-0.98438 0.007,-1.96875 0.0109,-2.95313 0.004,-0.98437 0.007,-1.96875 0.0108,-2.95312 0.004,-0.98438 0.007,-1.96875 0.0107,-2.95313 0.004,-0.98438 0.007,-1.96875 0.0107,-2.95313 0.004,-0.98438 0.007,-1.96876 0.0106,-2.95314 0.004,-0.98437 0.007,-1.96875 0.0105,-2.95313 0.003,-0.98438 0.007,-1.96877 0.0104,-2.95315 0.003,-0.98438 0.007,-1.96876 0.0103,-2.95315 0.003,-0.98438 0.007,-1.96877 0.0102,-2.95316 0.003,-0.98439 0.007,-1.96877 0.0102,-2.95316 0.003,-0.98439 0.007,-1.96879 0.0101,-2.95318 0.003,-0.98439 0.007,-1.96879 0.01,-2.95319 0.003,-0.98439 0.007,-1.96879 0.01,-2.95319 0.003,-0.9844 0.007,-1.96881 0.01,-2.95321 0.003,-0.98441 0.006,-1.96881 0.01,-2.95322 0.003,-0.98441 0.006,-1.96882 0.01,-2.95324 0.003,-0.98441 0.006,-1.96883 0.009,-2.95325 0.003,-0.98442 0.006,-1.96884 0.009,-2.95326 0.003,-0.98443 0.006,-1.96885 0.009,-2.95328 0.003,-0.98443 0.006,-1.96887 0.009,-2.9533 0.003,-0.98444 0.006,-1.96888 0.009,-2.95332 0.003,-0.98444 0.006,-1.96889 0.009,-2.95334 0.003,-0.98445 0.006,-1.9689 0.009,-2.95335 0.003,-0.98446 0.006,-1.96892 0.009,-2.95338 0.003,-0.98446 0.006,-1.96893 0.009,-2.9534 0.003,-0.98447 0.006,-1.96895 0.008,-2.95342 0.003,-0.98448 0.006,-1.96896 0.008,-2.95345 0.003,-0.98449 0.005,-1.96898 0.008,-2.95347 0.003,-0.9845 0.005,-1.96899 0.008,-2.9535 0.003,-0.9845 0.005,-1.96901 0.008,-2.95352 0.003,-0.98451 0.005,-1.96903 0.008,-2.95355 0.003,-0.98452 0.005,-1.96905 0.008,-2.95358 -6.92,-7.5 -13.75249,-13.45272 -20.68249,-20.95272 6.68,0 13.35,-0.01 20.03,0.01 -0.14,-5.84 -0.14,-11.69 -0.22,-17.53 -1.93,-0.04 -3.85,-0.06 -5.76,-0.08 -0.02,-4.52 -0.02,-9.04 0,-13.56 m 2.55,2.66 c 0,2.79 0,5.59 0.01,8.39 73.55,-0.25 147.12,-0.62 220.67,-0.32 -0.13,-2.81 -0.24,-5.62 -0.29,-8.42 -73.46,-0.01 -146.92,0.49 -220.39,0.35 m 5.72,10.96 c 0.06,5.53 0.2,11.05 0.28,16.57 69.78,0.25 139.56,0.55 209.34,0.63 -0.01,-5.89 -0.01,-11.79 -0.01,-17.68 -69.87,0.1 -139.74,0.32 -209.61,0.48 m -16.43,20.11 c 1.42,1.68 2.88,3.34 4.33,5.01 78.29,0.12 156.59,-0.02 234.88,0.07 1.22,-1.68 2.42,-3.37 3.64,-5.06 -80.95,-0.13 -161.9,-0.09 -242.85,-0.02 m 6.87,7.54 c 3.24,3.51 6.41,7.09 9.65,10.61 71.04,-0.05 142.07,0.01 213.11,-0.03 2.52,-3.55 5.1,-7.05 7.64,-10.58 -76.8,-0.01 -153.6,-0.02 -230.4,0 m 10.54,13.08 c -0.03,2.77 -0.04,5.55 -0.04,8.32 7.13,0.05 14.25,-0.2 21.38,-0.1 0.04,-2.75 0.04,-5.48 0,-8.22 -7.12,0.05 -14.23,0.04 -21.34,0 m 23.97,0.33 c 0.03,2.67 0.07,5.34 0.11,8.02 7.57,0 15.14,-0.01 22.72,0 -0.05,-2.68 -0.09,-5.35 -0.12,-8.02 -7.57,0.01 -15.14,0 -22.71,0 m 25.27,-0.14 c 0.05,2.69 0.1,5.37 0.14,8.07 h 22.78 c -0.05,-2.75 -0.09,-5.5 -0.15,-8.24 -7.59,0.07 -15.19,-0.21 -22.77,0.17 m 25.49,-0.18 c -0.03,2.76 -0.04,5.52 -0.05,8.28 6.28725,-3.32159 15.84293,-1.41877 23.27,-2.29 0.01,-2.01 0.01,-4 0.02,-5.99 -7.75,0.12 -15.49,0.05 -23.24,0 m 25.89,0.32 c -0.02,1.7 -0.03,3.4 -0.04,5.12 5.82,-0.33 11.67,0.19 17.39,1.3 9.43,2.61 19.29,1.04 28.92,1.46 0.01,-2.63 0.01,-5.26 0.01,-7.89 -15.43,0.03 -30.85,0.01 -46.28,0.01 m 49.03,-0.11 c 0,2.59 0,5.18 -0.01,7.78 7.75,-0.01 15.51,0 23.27,-0.01 0,-2.59 0.01,-5.18 0.01,-7.77 -7.76,-0.01 -15.51,0 -23.27,0 m 25.96,-0.21 c -0.04,2.73 -0.04,5.46 0,8.2 7.75,0.12 15.5,-0.55 23.25,-0.03 0.02,-2.73 0.02,-5.45 0.01,-8.17 h -23.26 m 25.97,0.17 c 0,2.67 0.01,5.35 0.05,8.03 3.08,-0.01 6.15,-0.01 9.24,0 0,-2.69 0.01,-5.37 0.01,-8.05 -3.1,0.01 -6.2,0.01 -9.3,0.02 m -69.29,10.58 c 5.63,2.23 10.78,5.42 15.91,8.58 4.01,0.28 8.04,0.03 12.06,0.1 -0.01,-2.91 -0.01,-5.82 0.01,-8.72 -9.33,0.04 -18.65,-0.04 -27.98,0.04 m -132.35,7.75 c 3.04,-0.01 6.08,-0.01 9.12,0 0.03,-2.52 0.05,-5.04 0.07,-7.55 -3.04,-0.01 -6.08,-0.02 -9.11,-0.05 -0.05,2.53 -0.07,5.06 -0.08,7.6 m 11.82,-7.56 c -0.04,2.51 -0.08,5.02 -0.11,7.54 15.48,0.15 30.98,-0.27 46.46,0.23 5.27,-3.25 11.03,-5.54 16.81,-7.68 -21.05,-0.1 -42.11,-0.09 -63.16,-0.09 m 151.14,8.49 h 21.36 c -0.01,-2.91 -0.01,-5.81 0.01,-8.71 -7.13,0 -14.25,0 -21.37,-0.01 v 8.72 m 23.96,0.15 c 8.01,0.07 16.01,-0.1 24.02,-0.17 -0.01,-2.9 -0.01,-5.8 0.01,-8.69 -8.01,0 -16.01,0.03 -24.02,0.02 0,2.94 0,5.89 -0.01,8.84 m -186.89,1.6 c 0,3.34 -0.02,6.68 -0.03,10.03 h 22.85 c -0.05,-3.33 -0.09,-6.66 -0.1,-9.98 -7.58,0.05 -15.15,-0.07 -22.72,-0.05 m 25.33,0.01 c 0.03,3.28 0.05,6.56 0.04,9.85 6.12,0.38 12.25,0.02 18.37,0.26 3.14,-3.8 6.67,-7.27 10.7,-10.14 -9.71,0.02 -19.41,-0.02 -29.11,0.03 m 126.09,0.8 c 3.7,2.93 6.71,6.6 10.13,9.8 4.13,0.26 8.27,0 12.41,0.1 v -9.89 c -7.52,-0.01 -15.03,0 -22.54,-0.01 m 25.2,0.01 c -0.02,3.29 -0.02,6.59 -0.02,9.89 7.23,-0.01 14.47,0 21.7,0 -0.01,-3.3 -0.02,-6.6 -0.03,-9.89 -7.22,-0.01 -14.43,0 -21.65,0 m 24.22,0.1 c 0.03,3.26 0.03,6.52 0.02,9.79 3.35,-0.02 6.7,-0.02 10.06,0.01 v -9.9 c -3.37,-0.03 -6.73,-0.03 -10.08,0.1 M 487.4,594.69 c 3.17,-0.01 6.34,-0.01 9.52,0 0.02,-2.67 0.02,-5.35 0.03,-8.02 h -9.49 c -0.03,2.67 -0.05,5.34 -0.06,8.02 m 12.23,-7.56 c -0.04,2.48 -0.07,4.95 -0.09,7.44 8.49,-0.09 16.98,0.2 25.48,0.1 1.35,-2.74 2.82,-5.43 4.44,-8.02 -9.96,-0.33 -19.88,0.7 -29.83,0.48 m 151.35,0.27 c 1.75,2.38 3.4,4.84 5.03,7.32 5.14,-0.06 10.29,-0.03 15.44,-0.03 -0.01,-2.43 -0.01,-4.86 0,-7.29 -6.83,0.01 -13.65,0.02 -20.47,0 m 23.13,0 c 0,2.43 0,4.87 0.01,7.32 8.1,-0.02 16.21,-0.01 24.31,-0.01 -0.01,-2.44 -0.01,-4.89 0,-7.32 -8.11,0.02 -16.22,0 -24.32,0.01 m -186.75,9.94 c -0.01,2.5 -0.02,5.01 -0.03,7.52 7.52,0 15.04,-0.09 22.57,-0.05 -0.01,-2.49 -0.01,-4.98 0,-7.46 -7.51,0.02 -15.03,-0.01 -22.54,-0.01 m 25.16,0 v 7.52 c 3,-0.01 6,-0.01 9.01,0 0.74,-2.53 1.54,-5.04 2.39,-7.53 -3.8,0.01 -7.6,0.01 -11.4,0.01 m 144.94,-0.02 c 1.43,2.62 2.76,5.29 4.03,7.99 7.9,-0.02 15.8,0 23.71,0 -0.01,-2.67 -0.01,-5.33 0,-7.99 -9.25,0 -18.5,0.05 -27.74,0 m 30.22,0.03 c 0,2.64 0,5.3 0.01,7.95 h 10.74 c -0.01,-2.66 -0.01,-5.31 0,-7.96 -3.59,0 -7.17,0 -10.75,0.01 M 487.55,607.5 c 0,2.47 0.01,4.95 0.01,7.43 2.94,-0.01 5.88,-0.01 8.82,0.01 0,-2.49 0,-4.97 0.01,-7.45 -2.95,0.01 -5.9,0.01 -8.84,0.01 m 11.64,0.08 c 0.01,2.47 0.02,4.95 0.05,7.43 6.73,-0.16 13.47,-0.17 20.21,0 0.38,-2.51 0.83,-5.02 1.27,-7.51 -7.18,0.02 -14.36,0.11 -21.53,0.08 m 163.4,0.29 c 1.14,2.65 1.94,5.44 2.02,8.35 2.38,-0.01 4.77,-0.01 7.16,0 0,-2.79 -0.01,-5.56 -0.02,-8.34 -3.06,0 -6.12,0 -9.16,-0.01 m 11.82,0.01 c -0.02,2.78 -0.02,5.56 -0.01,8.35 8.01,-0.31 16.12,0.64 24.07,-0.54 -0.05,-2.61 -0.06,-5.21 -0.07,-7.82 -8,0.01 -16,0 -23.99,0.01 m -187.17,13.59 c 7.98,-0.01 15.95,0.03 23.93,-0.03 -0.09,-0.9 -0.28,-2.72 -0.37,-3.63 -7.84,0.22 -15.67,-0.27 -23.51,-0.22 -0.02,1.28 -0.04,2.57 -0.05,3.88 m 26.29,-3.87 c 0.02,0.97 0.08,2.9 0.11,3.87 2,0 4.01,-0.01 6.03,0.01 0.01,-1.31 0.03,-2.61 0.06,-3.89 -2.08,-0.01 -4.14,0 -6.2,0.01 m 151.06,1.18 c 0.03,0.91 0.07,2.73 0.09,3.64 11.25,-0.01 22.5,-0.02 33.75,0 v -3.64 c -11.28,0.01 -22.56,0 -33.84,0 m -177.34,5.36 c -0.01,1.57 -0.02,3.14 -0.02,4.72 10.94,0 21.88,-0.01 32.82,0.01 12.76995,-9.99491 -26.48724,-4.80654 -32.8,-4.73 m 173.07,1.74 c 1.76,1.13 3.19,3.43 5.53,3.28 10.85,0.03 21.7,-0.02 32.56,0.01 0,-1.37 0.01,-2.73 0.02,-4.08 -12.7,0.36 -25.48,-0.78 -38.11,0.79 m -173.1,5.6 c -0.01,1.45 -0.01,2.9 -0.01,4.37 10.55,-0.01 21.09,-0.01 31.64,0 0,-1.47 0,-2.92 0.01,-4.37 h -31.64 m 176.85,0.28 c 0,1.87 0,3.75 0.01,5.64 11.35,-0.01 22.7,0 34.05,-0.01 0,-1.89 0,-3.76 0.01,-5.63 -11.36,-0.01 -22.71,0 -34.07,0 m -176.57,6.82 c 0,2.53 0.01,5.07 0.01,7.62 7.97,-0.01 15.95,-0.01 23.92,0 0,-2.55 0,-5.09 0.01,-7.63 -7.98,0.02 -15.96,0 -23.94,0.01 m 26.68,-0.04 c 0.01,2.55 0.01,5.1 0.02,7.66 1.53,-0.01 3.08,-0.01 4.63,0 0,-2.56 0.01,-5.11 0.02,-7.66 -1.56,-0.01 -3.12,-0.01 -4.67,0 m 149.96,1.34 c -0.11,2.27 -0.22,4.53 -0.28,6.81 11.52,-0.11 23.05,-0.29 34.57,-0.46 -0.02,-2.12 -0.02,-4.23 -0.03,-6.34 -11.42,0 -22.84,0.01 -34.26,-0.01 m -176.96,8.85 c 0,3.57 0,7.15 -0.01,10.73 2.56,-0.01 5.12,-0.01 7.69,0 -0.06,-3.58 -0.08,-7.16 -0.1,-10.73 h -7.58 m 10.39,10.59 c 7.06,-0.03 14.12,-0.04 21.19,0.17 -0.01,-3.6 -0.01,-7.2 -0.02,-10.79 -7.12,0.18 -14.24,0.16 -21.36,0.11 -0.02,3.5 0.07,7 0.19,10.51 m 166.37,-9.95 c -0.02,2.74 -0.03,5.49 -0.02,8.24 2.61,0 5.24,-0.01 7.87,-0.01 -0.01,-2.8 -0.01,-5.59 0,-8.38 -2.63,0.04 -5.24,0.08 -7.85,0.15 m 10.45,-0.19 v 8.38 c 7.92,-0.04 15.84,0.01 23.76,-0.06 -0.02,-2.91 -0.02,-5.81 -0.02,-8.71 -7.91,0.14 -15.83,0.37 -23.74,0.39 m -10.49,11.1 c -0.01,3.09 -0.02,6.18 -0.04,9.27 7.51,0.12 15.03,0.15 22.56,0.26 -0.01,-3.22 -0.01,-6.44 0,-9.66 -7.51,0.07 -15.01,0.03 -22.52,0.13 m 25.23,-0.12 v 9.66 c 2.99,0.01 5.99,0.04 9,0.04 -0.01,-3.24 -0.01,-6.48 0,-9.71 -3.01,-0.01 -6.01,0 -9,0.01 m -201.96,1.92 v 7.52 c 7.88,-0.01 15.76,-0.03 23.64,0 0.13,-2.5 0.29,-5 0.4,-7.49 -8.01,-0.09 -16.02,0.01 -24.04,-0.03 m 26.57,-0.16 c -0.08,2.55 -0.17,5.11 -0.27,7.67 1.79,0 3.6,0 5.41,0.01 -0.01,-2.57 -0.03,-5.13 -0.06,-7.69 -1.7,0 -3.39,-0.01 -5.08,0.01 m -26.6,10.29 c 0,2.64 0,5.29 0.01,7.94 2.69,0.01 5.37,-0.04 8.06,-0.24 -0.08,-2.59 -0.2,-5.16 -0.36,-7.73 -2.57,0.02 -5.14,0.02 -7.71,0.03 m 10.44,0.2 c 0.02,2.55 0.04,5.11 0.07,7.68 6.86,-0.06 13.73,-0.01 20.59,0.05 0,-2.67 0,-5.32 0.01,-7.98 -6.89,0.3 -13.78,0.28 -20.67,0.25 m 166.27,-0.19 c -0.01,2.49 -0.03,4.98 -0.01,7.48 2.43,-0.01 4.87,-0.01 7.32,0 -0.01,-2.48 -0.01,-4.96 0,-7.43 -2.44,-0.03 -4.88,-0.05 -7.31,-0.05 m 9.91,0.17 c -0.01,2.48 -0.01,4.96 0,7.44 8.14,-0.01 16.29,0.01 24.43,-0.01 -0.01,-2.45 -0.02,-4.9 -0.02,-7.34 -8.14,-0.07 -16.28,-0.05 -24.41,-0.09 m -9.96,9.92 c -0.02,2.66 -0.03,5.33 -0.04,8.01 7.04,-0.01 14.08,-0.01 21.12,0 -0.01,-2.63 -0.01,-5.26 0,-7.88 -7.03,0.05 -14.06,-0.1 -21.08,-0.13 m -176.63,0.39 c 0.01,2.47 0.01,4.95 0.02,7.43 7.99,-0.01 15.99,-0.04 23.99,-0.03 0,-2.45 0,-4.89 0.01,-7.33 -8.01,0.03 -16.01,-0.05 -24.02,-0.07 m 26.58,0.01 c -0.01,2.47 -0.01,4.94 0,7.42 1.69,-0.01 3.4,-0.01 5.11,0 0,-2.48 0,-4.96 0.01,-7.43 -1.71,0 -3.43,0 -5.12,0.01 m 173.82,-0.3 c -0.01,2.63 -0.01,5.27 0,7.91 3.55,-0.01 7.1,0 10.66,0 -0.02,-2.63 -0.03,-5.25 -0.03,-7.87 -3.55,-0.02 -7.09,-0.03 -10.63,-0.04 m -200.66,10.33 c -0.01,2.62 -0.02,5.24 -0.02,7.87 2.84,0.03 5.69,0.04 8.54,0.05 -0.01,-2.66 -0.01,-5.3 -0.01,-7.94 -2.84,-0.01 -5.67,0 -8.51,0.02 m 11.18,0.03 c -0.17,2.61 -0.22,5.22 -0.21,7.85 6.85,0.06 13.7,0.01 20.56,0.03 -0.01,-2.66 -0.01,-5.31 -0.01,-7.95 -6.78,0.12 -13.56,0.14 -20.34,0.07 m 165.71,0.08 c -0.02,2.76 -0.03,5.52 -0.02,8.29 2.48,-0.18 4.98,-0.3 7.49,-0.36 -0.01,-2.65 -0.01,-5.3 -0.01,-7.94 -2.49,0 -4.98,0 -7.46,0.01 m 10.32,0.27 c -0.01,2.56 -0.01,5.12 0,7.69 8.05,-0.02 16.1,-0.02 24.15,-0.21 -0.02,-2.59 -0.03,-5.17 -0.04,-7.75 -8.04,-0.18 -16.07,0.51 -24.11,0.27 M 487.11,703.3 c 0,2.61 -0.01,5.23 0,7.86 7.86,-0.01 15.71,-0.01 23.57,0 0,-2.54 0.01,-5.08 0.02,-7.61 -7.86,0.14 -15.72,-0.2 -23.59,-0.25 m 26.21,-0.04 c 0,2.63 0,5.26 0.01,7.89 1.83,0 3.68,0 5.53,0.01 0,-2.64 0,-5.27 0.01,-7.9 -1.86,-0.01 -3.71,0 -5.55,0 m 174.24,0.08 v 7.56 c 3.58,-0.01 7.16,0 10.75,0.01 -0.02,-2.56 -0.03,-5.11 -0.03,-7.66 -3.58,0.02 -7.15,0.06 -10.72,0.09 m -23.82,0.31 c -0.01,2.4 -0.01,4.8 -0.01,7.21 7.05,-0.01 14.1,0.01 21.16,0.03 -0.01,-2.44 -0.01,-4.88 0.01,-7.31 -7.06,0.03 -14.11,0 -21.16,0.07 m -0.31,9.71 c -0.05,8.57 -0.1,17.14 -0.04,25.72 11.71,0.16 23.41,0.17 35.12,0.19 -0.02,-8.58 -0.01,-17.16 0,-25.73 -11.7,-0.13 -23.39,-0.18 -35.08,-0.18 m -176.62,0.31 v 25.88 c 10.75,0.16 21.49,-0.2 32.24,-0.33 0.03,-8.52 0.01,-17.03 0.01,-25.54 -10.75,-0.04 -21.5,-0.02 -32.25,-0.01 z"
         id="path1015"
         sodipodi:nodetypes="ccccccccscccccccccccccccssssssssssssssssssssssssssssssssssssssssssssssssssssssssssssssscccccccccccccccccccccccccccccccccccccccccccccccccccccccccccccccccccccccccccccccccccccccccccccccccccccccccccccccccccccccccccccccccccccccccccccccccccccccccccccccccccccccccccccccccccccccccccccccccccccccccccccccccccccccccccccccccccccccccccccccccccccccccccccccccccccccccccccccccccccccccccccccccccccccccccccccccccccccccccccccccccccccccccccccccccccccccccccccccccc" />
    </g>
    <g
       id="#faae1eff">
      <path
         fill="#faae1e"
         opacity="1"
         d="m 480.83,501.21 c 73.47,0.14 146.93,-0.36 220.39,-0.35 0.05,2.8 0.16,5.61 0.29,8.42 -73.55,-0.3 -147.12,0.07 -220.67,0.32 -0.01,-2.8 -0.01,-5.6 -0.01,-8.39 z"
         id="path720" />
      <path
         fill="#faae1e"
         opacity="1"
         d="m 470.12,532.28 c 80.95,-0.07 161.9,-0.11 242.85,0.02 -1.22,1.69 -2.42,3.38 -3.64,5.06 -78.29,-0.09 -156.59,0.05 -234.88,-0.07 -1.45,-1.67 -2.91,-3.33 -4.33,-5.01 z"
         id="path722" />
      <path
         fill="#faae1e"
         opacity="1"
         d="m 663.43,713.36 c 11.69,0 23.38,0.05 35.08,0.18 -0.01,8.57 -0.02,17.15 0,25.73 -11.71,-0.02 -23.41,-0.03 -35.12,-0.19 -0.06,-8.58 -0.01,-17.15 0.04,-25.72 z"
         id="path724" />
      <path
         fill="#faae1e"
         opacity="1"
         d="m 486.81,713.67 c 10.75,-0.01 21.5,-0.03 32.25,0.01 0,8.51 0.02,17.02 -0.01,25.54 -10.75,0.13 -21.49,0.49 -32.24,0.33 0,-8.63 0,-17.26 0,-25.88 z"
         id="path726" />
    </g>
    <g
       id="#ffcd6eff">
      <path
         fill="#ffcd6e"
         opacity="1"
         d="m 486.55,512.17 c 69.87,-0.16 139.74,-0.38 209.61,-0.48 0,5.89 0,11.79 0.01,17.68 -69.78,-0.08 -139.56,-0.38 -209.34,-0.63 -0.08,-5.52 -0.22,-11.04 -0.28,-16.57 z"
         id="path729" />
      <path
         fill="#ffcd6e"
         opacity="1"
         d="m 476.99,539.82 c 76.8,-0.02 153.6,-0.01 230.4,0 -2.54,3.53 -5.12,7.03 -7.64,10.58 -71.04,0.04 -142.07,-0.02 -213.11,0.03 -3.24,-3.52 -6.41,-7.1 -9.65,-10.61 z"
         id="path731" />
      <path
         fill="#ffcd6e"
         opacity="1"
         d="m 487.53,552.9 c 7.11,0.04 14.22,0.05 21.34,0 0.04,2.74 0.04,5.47 0,8.22 -7.13,-0.1 -14.25,0.15 -21.38,0.1 0,-2.77 0.01,-5.55 0.04,-8.32 z"
         id="path733" />
      <path
         fill="#ffcd6e"
         opacity="1"
         d="m 511.5,553.23 c 7.57,0 15.14,0.01 22.71,0 0.03,2.67 0.07,5.34 0.12,8.02 -7.58,-0.01 -15.15,0 -22.72,0 -0.04,-2.68 -0.08,-5.35 -0.11,-8.02 z"
         id="path735" />
      <path
         fill="#ffcd6e"
         opacity="1"
         d="m 536.77,553.09 c 7.58,-0.38 15.18,-0.1 22.77,-0.17 0.06,2.74 0.1,5.49 0.15,8.24 -7.59,0 -15.19,0 -22.78,0 -0.04,-2.7 -0.09,-5.38 -0.14,-8.07 z"
         id="path737" />
      <path
         fill="#ffcd6e"
         opacity="1"
         d="m 562.26,552.91 c 7.75,0.05 15.49,0.12 23.24,0 -0.01,1.99 -0.01,3.98 -0.02,5.99 -5.34,0.6 -10.55,1.91 -15.81,2.95 -4.37317,0.18173 -4.00846,-0.0791 -7.46,-0.66 0.01,-2.76 0.02,-5.52 0.05,-8.28 z"
         id="path739"
         sodipodi:nodetypes="cccccc" />
      <path
         fill="#ffcd6e"
         opacity="1"
         d="m 588.15,553.23 c 15.43,0 30.85,0.02 46.28,-0.01 0,2.63 0,5.26 -0.01,7.89 -9.63,-0.42 -19.49,1.15 -28.92,-1.46 -5.72,-1.11 -11.57,-1.63 -17.39,-1.3 0.01,-1.72 0.02,-3.42 0.04,-5.12 z"
         id="path741" />
      <path
         fill="#ffcd6e"
         opacity="1"
         d="m 637.18,553.12 c 7.76,0 15.51,-0.01 23.27,0 0,2.59 -0.01,5.18 -0.01,7.77 -7.76,0.01 -15.52,0 -23.27,0.01 0.01,-2.6 0.01,-5.19 0.01,-7.78 z"
         id="path743" />
      <path
         fill="#ffcd6e"
         opacity="1"
         d="m 663.14,552.91 c 7.75,0 15.51,0 23.26,0 0.01,2.72 0.01,5.44 -0.01,8.17 -7.75,-0.52 -15.5,0.15 -23.25,0.03 -0.04,-2.74 -0.04,-5.47 0,-8.2 z"
         id="path745" />
      <path
         fill="#ffcd6e"
         opacity="1"
         d="m 689.11,553.08 c 3.1,-0.01 6.2,-0.01 9.3,-0.02 0,2.68 -0.01,5.36 -0.01,8.05 -3.09,-0.01 -6.16,-0.01 -9.24,0 -0.04,-2.68 -0.05,-5.36 -0.05,-8.03 z"
         id="path747" />
      <path
         fill="#ffcd6e"
         opacity="1"
         d="m 619.82,563.66 c 9.33,-0.08 18.65,0 27.98,-0.04 -0.02,2.9 -0.02,5.81 -0.01,8.72 -4.02,-0.07 -8.05,0.18 -12.06,-0.1 -5.13,-3.16 -10.28,-6.35 -15.91,-8.58 z"
         id="path749" />
      <path
         fill="#ffcd6e"
         opacity="1"
         d="m 487.47,571.41 c 0.01,-2.54 0.03,-5.07 0.08,-7.6 3.03,0.03 6.07,0.04 9.11,0.05 -0.02,2.51 -0.04,5.03 -0.07,7.55 -3.04,-0.01 -6.08,-0.01 -9.12,0 z"
         id="path751" />
      <path
         fill="#ffcd6e"
         opacity="1"
         d="m 499.29,563.85 c 21.05,0 42.11,-0.01 63.16,0.09 -5.78,2.14 -11.54,4.43 -16.81,7.68 -15.48,-0.5 -30.98,-0.08 -46.46,-0.23 0.03,-2.52 0.07,-5.03 0.11,-7.54 z"
         id="path753" />
      <path
         fill="#ffcd6e"
         opacity="1"
         d="m 650.43,572.34 c 0,-2.91 0,-5.81 0,-8.72 7.12,0.01 14.24,0.01 21.37,0.01 -0.02,2.9 -0.02,5.8 -0.01,8.71 -7.12,0 -14.24,0 -21.36,0 z"
         id="path755" />
      <path
         fill="#ffcd6e"
         opacity="1"
         d="m 674.39,572.49 c 0.01,-2.95 0.01,-5.9 0.01,-8.84 8.01,0.01 16.01,-0.02 24.02,-0.02 -0.02,2.89 -0.02,5.79 -0.01,8.69 -8.01,0.07 -16.01,0.24 -24.02,0.17 z"
         id="path757" />
      <path
         fill="#ffcd6e"
         opacity="1"
         d="m 487.5,574.09 c 7.57,-0.02 15.14,0.1 22.72,0.05 0.01,3.32 0.05,6.65 0.1,9.98 -7.62,0 -15.23,0 -22.85,0 0.01,-3.35 0.03,-6.69 0.03,-10.03 z"
         id="path759" />
      <path
         fill="#ffcd6e"
         opacity="1"
         d="m 512.83,574.1 c 9.7,-0.05 19.4,-0.01 29.11,-0.03 -4.03,2.87 -7.56,6.34 -10.7,10.14 -6.12,-0.24 -12.25,0.12 -18.37,-0.26 0.01,-3.29 -0.01,-6.57 -0.04,-9.85 z"
         id="path761" />
      <path
         fill="#ffcd6e"
         opacity="1"
         d="m 638.92,574.9 c 7.51,0.01 15.02,0 22.54,0.01 0,3.29 0,6.59 0,9.89 -4.14,-0.1 -8.28,0.16 -12.41,-0.1 -3.42,-3.2 -6.43,-6.87 -10.13,-9.8 z"
         id="path763" />
      <path
         fill="#ffcd6e"
         opacity="1"
         d="m 664.12,574.91 c 7.22,0 14.43,-0.01 21.65,0 0.01,3.29 0.02,6.59 0.03,9.89 -7.23,0 -14.47,-0.01 -21.7,0 0,-3.3 0,-6.6 0.02,-9.89 z"
         id="path765" />
      <path
         fill="#ffcd6e"
         opacity="1"
         d="m 688.34,575.01 c 3.35,-0.13 6.71,-0.13 10.08,-0.1 0,3.3 0,6.59 0,9.9 -3.36,-0.03 -6.71,-0.03 -10.06,-0.01 0.01,-3.27 0.01,-6.53 -0.02,-9.79 z"
         id="path767" />
      <path
         fill="#ffcd6e"
         opacity="1"
         d="m 487.4,594.69 c 0.01,-2.68 0.03,-5.35 0.06,-8.02 3.16,0 6.32,0 9.49,0 -0.01,2.67 -0.01,5.35 -0.03,8.02 -3.18,-0.01 -6.35,-0.01 -9.52,0 z"
         id="path769" />
      <path
         fill="#ffcd6e"
         opacity="1"
         d="m 499.63,587.13 c 9.95,0.22 19.87,-0.81 29.83,-0.48 -1.62,2.59 -3.09,5.28 -4.44,8.02 -8.5,0.1 -16.99,-0.19 -25.48,-0.1 0.02,-2.49 0.05,-4.96 0.09,-7.44 z"
         id="path771" />
      <path
         fill="#ffcd6e"
         opacity="1"
         d="m 650.98,587.4 c 6.82,0.02 13.64,0.01 20.47,0 -0.01,2.43 -0.01,4.86 0,7.29 -5.15,0 -10.3,-0.03 -15.44,0.03 -1.63,-2.48 -3.28,-4.94 -5.03,-7.32 z"
         id="path773" />
      <path
         fill="#ffcd6e"
         opacity="1"
         d="m 674.11,587.4 c 8.1,-0.01 16.21,0.01 24.32,-0.01 -0.01,2.43 -0.01,4.88 0,7.32 -8.1,0 -16.21,-0.01 -24.31,0.01 -0.01,-2.45 -0.01,-4.89 -0.01,-7.32 z"
         id="path775" />
      <path
         fill="#ffcd6e"
         opacity="1"
         d="m 487.36,597.34 c 7.51,0 15.03,0.03 22.54,0.01 -0.01,2.48 -0.01,4.97 0,7.46 -7.53,-0.04 -15.05,0.05 -22.57,0.05 0.01,-2.51 0.02,-5.02 0.03,-7.52 z"
         id="path777" />
      <path
         fill="#ffcd6e"
         opacity="1"
         d="m 512.52,597.34 c 3.8,0 7.6,0 11.4,-0.01 -0.85,2.49 -1.65,5 -2.39,7.53 -3.01,-0.01 -6.01,-0.01 -9.01,0 0,-2.51 0,-5.02 0,-7.52 z"
         id="path779" />
      <path
         fill="#ffcd6e"
         opacity="1"
         d="m 657.46,597.32 c 9.24,0.05 18.49,0 27.74,0 -0.01,2.66 -0.01,5.32 0,7.99 -7.91,0 -15.81,-0.02 -23.71,0 -1.27,-2.7 -2.6,-5.37 -4.03,-7.99 z"
         id="path781" />
      <path
         fill="#ffcd6e"
         opacity="1"
         d="m 687.68,597.35 c 3.58,-0.01 7.16,-0.01 10.75,-0.01 -0.01,2.65 -0.01,5.3 0,7.96 -3.59,0 -7.17,0 -10.74,0 -0.01,-2.65 -0.01,-5.31 -0.01,-7.95 z"
         id="path783" />
      <path
         fill="#ffcd6e"
         opacity="1"
         d="m 487.55,607.5 c 2.94,0 5.89,0 8.84,-0.01 -0.01,2.48 -0.01,4.96 -0.01,7.45 -2.94,-0.02 -5.88,-0.02 -8.82,-0.01 0,-2.48 -0.01,-4.96 -0.01,-7.43 z"
         id="path785" />
      <path
         fill="#ffcd6e"
         opacity="1"
         d="m 499.19,607.58 c 7.17,0.03 14.35,-0.06 21.53,-0.08 -0.44,2.49 -0.89,5 -1.27,7.51 -6.74,-0.17 -13.48,-0.16 -20.21,0 -0.03,-2.48 -0.04,-4.96 -0.05,-7.43 z"
         id="path787" />
      <path
         fill="#ffcd6e"
         opacity="1"
         d="m 662.59,607.87 c 3.04,0.01 6.1,0.01 9.16,0.01 0.01,2.78 0.02,5.55 0.02,8.34 -2.39,-0.01 -4.78,-0.01 -7.16,0 -0.08,-2.91 -0.88,-5.7 -2.02,-8.35 z"
         id="path789" />
      <path
         fill="#ffcd6e"
         opacity="1"
         d="m 674.41,607.88 c 7.99,-0.01 15.99,0 23.99,-0.01 0.01,2.61 0.02,5.21 0.07,7.82 -7.95,1.18 -16.06,0.23 -24.07,0.54 -0.01,-2.79 -0.01,-5.57 0.01,-8.35 z"
         id="path791" />
      <path
         fill="#ffcd6e"
         opacity="1"
         d="m 487.24,621.47 c 0.01,-1.31 0.03,-2.6 0.05,-3.88 7.84,-0.05 15.67,0.44 23.51,0.22 0.09,0.91 0.28,2.73 0.37,3.63 -7.98,0.06 -15.95,0.02 -23.93,0.03 z"
         id="path793" />
      <path
         fill="#ffcd6e"
         opacity="1"
         d="m 513.53,617.6 c 2.06,-0.01 4.12,-0.02 6.2,-0.01 -0.03,1.28 -0.05,2.58 -0.06,3.89 -2.02,-0.02 -4.03,-0.01 -6.03,-0.01 -0.03,-0.97 -0.09,-2.9 -0.11,-3.87 z"
         id="path795" />
      <path
         fill="#ffcd6e"
         opacity="1"
         d="m 664.59,618.78 c 11.28,0 22.56,0.01 33.84,0 0,0.91 0,2.73 0,3.64 -11.25,-0.02 -22.5,-0.01 -33.75,0 -0.02,-0.91 -0.06,-2.73 -0.09,-3.64 z"
         id="path797" />
      <path
         fill="#ffcd6e"
         opacity="1"
         d="m 487.27125,623.48134 c 12.59,-0.18 29.11505,0.067 41.53481,-0.0519 L 520.05,628.87 c -10.94,-0.02 -21.88,-0.01 -32.82,-0.01 0,-1.58 0.0312,-3.80866 0.0412,-5.37866 z"
         id="path799"
         sodipodi:nodetypes="ccccc" />
      <path
         fill="#ffcd6e"
         opacity="1"
         d="m 660.32,625.88 c 12.63,-1.57 25.41,-0.43 38.11,-0.79 -0.01,1.35 -0.02,2.71 -0.02,4.08 -10.86,-0.03 -21.71,0.02 -32.56,-0.01 -2.34,0.15 -3.77,-2.15 -5.53,-3.28 z"
         id="path801" />
      <path
         fill="#ffcd6e"
         opacity="1"
         d="m 487.22,631.48 c 10.55,0 21.09,0 31.64,0 -0.01,1.45 -0.01,2.9 -0.01,4.37 -10.55,-0.01 -21.09,-0.01 -31.64,0 0,-1.47 0,-2.92 0.01,-4.37 z"
         id="path803" />
      <path
         fill="#ffcd6e"
         opacity="1"
         d="m 664.07,631.76 c 11.36,0 22.71,-0.01 34.07,0 -0.01,1.87 -0.01,3.74 -0.01,5.63 -11.35,0.01 -22.7,0 -34.05,0.01 -0.01,-1.89 -0.01,-3.77 -0.01,-5.64 z"
         id="path805" />
      <path
         fill="#ffcd6e"
         opacity="1"
         d="m 487.5,638.58 c 7.98,-0.01 15.96,0.01 23.94,-0.01 -0.01,2.54 -0.01,5.08 -0.01,7.63 -7.97,-0.01 -15.95,-0.01 -23.92,0 0,-2.55 -0.01,-5.09 -0.01,-7.62 z"
         id="path807" />
      <path
         fill="#ffcd6e"
         opacity="1"
         d="m 514.18,638.54 c 1.55,-0.01 3.11,-0.01 4.67,0 -0.01,2.55 -0.02,5.1 -0.02,7.66 -1.55,-0.01 -3.1,-0.01 -4.63,0 -0.01,-2.56 -0.01,-5.11 -0.02,-7.66 z"
         id="path809" />
      <path
         fill="#ffcd6e"
         opacity="1"
         d="m 664.14,639.88 c 11.42,0.02 22.84,0.01 34.26,0.01 0.01,2.11 0.01,4.22 0.03,6.34 -11.52,0.17 -23.05,0.35 -34.57,0.46 0.06,-2.28 0.17,-4.54 0.28,-6.81 z"
         id="path811" />
      <path
         fill="#ffcd6e"
         opacity="1"
         d="m 487.18,648.73 c 2.52,0 5.05,0 7.58,0 0.02,3.57 0.04,7.15 0.1,10.73 -2.57,-0.01 -5.13,-0.01 -7.69,0 0.01,-3.58 0.01,-7.16 0.01,-10.73 z"
         id="path813" />
      <path
         fill="#ffcd6e"
         opacity="1"
         d="m 497.57,659.32 c -0.12,-3.51 -0.21,-7.01 -0.19,-10.51 7.12,0.05 14.24,0.07 21.36,-0.11 0.01,3.59 0.01,7.19 0.02,10.79 -7.07,-0.21 -14.13,-0.2 -21.19,-0.17 z"
         id="path815" />
      <path
         fill="#ffcd6e"
         opacity="1"
         d="m 663.94,649.37 c 2.61,-0.07 5.22,-0.11 7.85,-0.15 -0.01,2.79 -0.01,5.58 0,8.38 -2.63,0 -5.26,0.01 -7.87,0.01 -0.01,-2.75 0,-5.5 0.02,-8.24 z"
         id="path817" />
      <path
         fill="#ffcd6e"
         opacity="1"
         d="m 674.39,649.18 c 7.91,-0.02 15.83,-0.25 23.74,-0.39 0,2.9 0,5.8 0.02,8.71 -7.92,0.07 -15.84,0.02 -23.76,0.06 0,-2.8 0,-5.59 0,-8.38 z"
         id="path819" />
      <path
         fill="#ffcd6e"
         opacity="1"
         d="m 663.9,660.28 c 7.51,-0.1 15.01,-0.06 22.52,-0.13 -0.01,3.22 -0.01,6.44 0,9.66 -7.53,-0.11 -15.05,-0.14 -22.56,-0.26 0.02,-3.09 0.03,-6.18 0.04,-9.27 z"
         id="path821" />
      <path
         fill="#ffcd6e"
         opacity="1"
         d="m 689.13,660.16 c 2.99,-0.01 5.99,-0.02 9,-0.01 -0.01,3.23 -0.01,6.47 0,9.71 -3.01,0 -6.01,-0.03 -9,-0.04 0,-3.23 0,-6.45 0,-9.66 z"
         id="path823" />
      <path
         fill="#ffcd6e"
         opacity="1"
         d="m 487.17,662.08 c 8.02,0.04 16.03,-0.06 24.04,0.03 -0.11,2.49 -0.27,4.99 -0.4,7.49 -7.88,-0.03 -15.76,-0.01 -23.64,0 0,-2.51 0,-5.02 0,-7.52 z"
         id="path825" />
      <path
         fill="#ffcd6e"
         opacity="1"
         d="m 513.74,661.92 c 1.69,-0.02 3.38,-0.01 5.08,-0.01 0.03,2.56 0.05,5.12 0.06,7.69 -1.81,-0.01 -3.62,-0.01 -5.41,-0.01 0.1,-2.56 0.19,-5.12 0.27,-7.67 z"
         id="path827" />
      <path
         fill="#ffcd6e"
         opacity="1"
         d="m 487.14,672.21 c 2.57,-0.01 5.14,-0.01 7.71,-0.03 0.16,2.57 0.28,5.14 0.36,7.73 -2.69,0.2 -5.37,0.25 -8.06,0.24 -0.01,-2.65 -0.01,-5.3 -0.01,-7.94 z"
         id="path829" />
      <path
         fill="#ffcd6e"
         opacity="1"
         d="m 497.58,672.41 c 6.89,0.03 13.78,0.05 20.67,-0.25 -0.01,2.66 -0.01,5.31 -0.01,7.98 -6.86,-0.06 -13.73,-0.11 -20.59,-0.05 -0.03,-2.57 -0.05,-5.13 -0.07,-7.68 z"
         id="path831" />
      <path
         fill="#ffcd6e"
         opacity="1"
         d="m 663.85,672.22 c 2.43,0 4.87,0.02 7.31,0.05 -0.01,2.47 -0.01,4.95 0,7.43 -2.45,-0.01 -4.89,-0.01 -7.32,0 -0.02,-2.5 0,-4.99 0.01,-7.48 z"
         id="path833" />
      <path
         fill="#ffcd6e"
         opacity="1"
         d="m 673.76,672.39 c 8.13,0.04 16.27,0.02 24.41,0.09 0,2.44 0.01,4.89 0.02,7.34 -8.14,0.02 -16.29,0 -24.43,0.01 -0.01,-2.48 -0.01,-4.96 0,-7.44 z"
         id="path835" />
      <path
         fill="#ffcd6e"
         opacity="1"
         d="m 663.8,682.31 c 7.02,0.03 14.05,0.18 21.08,0.13 -0.01,2.62 -0.01,5.25 0,7.88 -7.04,-0.01 -14.08,-0.01 -21.12,0 0.01,-2.68 0.02,-5.35 0.04,-8.01 z"
         id="path837" />
      <path
         fill="#ffcd6e"
         opacity="1"
         d="m 487.17,682.7 c 8.01,0.02 16.01,0.1 24.02,0.07 -0.01,2.44 -0.01,4.88 -0.01,7.33 -8,-0.01 -16,0.02 -23.99,0.03 -0.01,-2.48 -0.01,-4.96 -0.02,-7.43 z"
         id="path839" />
      <path
         fill="#ffcd6e"
         opacity="1"
         d="m 513.75,682.71 c 1.69,-0.01 3.41,-0.01 5.12,-0.01 -0.01,2.47 -0.01,4.95 -0.01,7.43 -1.71,-0.01 -3.42,-0.01 -5.11,0 -0.01,-2.48 -0.01,-4.95 0,-7.42 z"
         id="path841" />
      <path
         fill="#ffcd6e"
         opacity="1"
         d="m 687.57,682.41 c 3.54,0.01 7.08,0.02 10.63,0.04 0,2.62 0.01,5.24 0.03,7.87 -3.56,0 -7.11,-0.01 -10.66,0 -0.01,-2.64 -0.01,-5.28 0,-7.91 z"
         id="path843" />
      <path
         fill="#ffcd6e"
         opacity="1"
         d="m 486.91,692.74 c 2.84,-0.02 5.67,-0.03 8.51,-0.02 0,2.64 0,5.28 0.01,7.94 -2.85,-0.01 -5.7,-0.02 -8.54,-0.05 0,-2.63 0.01,-5.25 0.02,-7.87 z"
         id="path845" />
      <path
         fill="#ffcd6e"
         opacity="1"
         d="m 498.09,692.77 c 6.78,0.07 13.56,0.05 20.34,-0.07 0,2.64 0,5.29 0.01,7.95 -6.86,-0.02 -13.71,0.03 -20.56,-0.03 -0.01,-2.63 0.04,-5.24 0.21,-7.85 z"
         id="path847" />
      <path
         fill="#ffcd6e"
         opacity="1"
         d="m 663.8,692.85 c 2.48,-0.01 4.97,-0.01 7.46,-0.01 0,2.64 0,5.29 0.01,7.94 -2.51,0.06 -5.01,0.18 -7.49,0.36 -0.01,-2.77 0,-5.53 0.02,-8.29 z"
         id="path849" />
      <path
         fill="#ffcd6e"
         opacity="1"
         d="m 674.12,693.12 c 8.04,0.24 16.07,-0.45 24.11,-0.27 0.01,2.58 0.02,5.16 0.04,7.75 -8.05,0.19 -16.1,0.19 -24.15,0.21 -0.01,-2.57 -0.01,-5.13 0,-7.69 z"
         id="path851" />
      <path
         fill="#ffcd6e"
         opacity="1"
         d="m 487.11,703.3 c 7.87,0.05 15.73,0.39 23.59,0.25 -0.01,2.53 -0.02,5.07 -0.02,7.61 -7.86,-0.01 -15.71,-0.01 -23.57,0 -0.01,-2.63 0,-5.25 0,-7.86 z"
         id="path853" />
      <path
         fill="#ffcd6e"
         opacity="1"
         d="m 513.32,703.26 c 1.84,0 3.69,-0.01 5.55,0 -0.01,2.63 -0.01,5.26 -0.01,7.9 -1.85,-0.01 -3.7,-0.01 -5.53,-0.01 -0.01,-2.63 -0.01,-5.26 -0.01,-7.89 z"
         id="path855" />
      <path
         fill="#ffcd6e"
         opacity="1"
         d="m 687.56,703.34 c 3.57,-0.03 7.14,-0.07 10.72,-0.09 0,2.55 0.01,5.1 0.03,7.66 -3.59,-0.01 -7.17,-0.02 -10.75,-0.01 0,-2.53 0,-5.05 0,-7.56 z"
         id="path857" />
      <path
         fill="#ffcd6e"
         opacity="1"
         d="m 663.74,703.65 c 7.05,-0.07 14.1,-0.04 21.16,-0.07 -0.02,2.43 -0.02,4.87 -0.01,7.31 -7.06,-0.02 -14.11,-0.04 -21.16,-0.03 0,-2.41 0,-4.81 0.01,-7.21 z"
         id="path859" />
    </g>
    <g
       id="#595959e7">
      <path
         fill="#595959"
         opacity="0.91"
         d="m 622.03,751.26 c -279.17115,-293.58392 -139.58557,-146.79196 0,0 z"
         id="path862"
         sodipodi:nodetypes="cc" />
    </g>
    <g
       id="#3f3f3fdd" />
  </g>
  <g
     id="g1013"
     transform="matrix(1.9776001,0,0,1.9776001,-687.63368,-733.47562)">
    <g
       id="#ff0000ff">
      <path
         fill="#ff0000"
         opacity="1"
         d="m 601.07767,525.05978 c 8.63,10.06 12.77,23.51 12.29,36.68 0.2,9.58 -3.07,19.94 -11.16,25.72 -3.47,2.9 -8.23,3.38 -12.56,2.78 -7,-1.97 -11.5,-10.66 -8.26,-17.38 2.2,-6.13 8.83,-9.5 15.1,-9.35 1.29,-0.22 3.08,0.45 3.84,-1 2.72,-3.68 3.22,-8.43 3.57,-12.85 0.26,-8.29 -1.45,-16.47 -2.82,-24.6 m -14.14,50.65 c -242.4392,-172.55383 -121.2196,-86.27691 0,0 z"
         id="path958"
         sodipodi:nodetypes="ccccccccccc" />
      <path
         fill="#ff0000"
         opacity="1"
         d="m 614.76,542.84 c 5.03,8.5 8.45,18.25 8.23,28.21 -0.04,4.05 0.17,8.12 -0.43,12.14 -2.59,14.78 -9.19,29.77 -21.99,38.44 -4.5,3.87 -10.75,5.53 -16.51,3.81 -5.17,-1.88 -9.72,-6.05 -11.29,-11.41 -0.8,-3.72 -0.7,-7.85 1.22,-11.22 2.96,-5.49 8.8,-8.96 14.85,-9.93 4.08,-0.43 8.45,0.68 12.29,-1.23 7.28,-2.91 11.75,-10.26 13.17,-17.7 2.31,-10.24 0.8,-20.76 0.46,-31.11"
         id="path960"
         sodipodi:nodetypes="ccccccccccc" />
    </g>
    <g
       id="#fd403fff" />
    <g
       id="#fb7c7cff" />
    <g
       id="#009700ff-5">
      <path
         fill="#009700"
         opacity="1"
         d="m 656.35,637.83 c 20.8,-20.25 41.5,-40.61 62.32,-60.83 0.46,0.48 1.37,1.44 1.83,1.92 -20.78,20.27 -41.54,40.55 -62.3,60.84 -0.47,-0.48 -1.39,-1.45 -1.85,-1.93 z"
         id="path969" />
      <path
         fill="#009700"
         opacity="1"
         d="m 655.03,648.3 c 21.29,-20.79 42.34,-41.84 63.7,-62.57 0.43,0.48 1.3,1.45 1.74,1.93 -20.79,20.5 -41.65,40.95 -62.44,61.46 -0.96,1.54 -2.13,-0.32 -3,-0.82 z"
         id="path971" />
      <path
         fill="#009700"
         opacity="1"
         d="m 591.65,719.68 c 42.33,-41.51 84.63,-83.05 127,-124.52 0.46,0.47 1.39,1.43 1.85,1.9 -42.33,41.51 -84.67,83.01 -126.99,124.52 4.56,4.74 9.09,9.49 13.59,14.29 -2.6025,-0.02 -5.46867,-1.74612 -7.89539,-2.42185 -2.5073,-0.69817 -5.11711,2.27685 -7.71961,2.23938 -2.6025,-0.0375 -5.205,-3.35815 -7.89539,-2.45938 -2.46868,0.8247 -5.11711,2.26685 -7.71961,2.23188 1.1425,-1.17 2.285,-2.34 3.42797,-3.50969 1.14297,-1.16969 2.28641,-2.33906 3.43078,-3.50781 1.14438,-1.16875 2.28969,-2.33687 3.43641,-3.50406 1.14672,-1.16719 2.29484,-2.33344 3.44484,-3.49844 -43.53,-40.79 -87.04,-81.61 -130.57,-122.4 -1.64,-0.85 -0.56,-2.26 -0.06,-3.46 44.47,41.09 88.38,82.81 132.67,124.1 z"
         id="path973"
         sodipodi:nodetypes="cccccssscsssccccc" />
    </g>
    <g
       id="#fd3a3aff" />
    <g
       id="#fc7373ff" />
    <g
       id="#000000ff-8">
      <path
         fill="#000000"
         opacity="1"
         d="m 633.39,632.47 c 8.27,-2.26 17.15,4.2 18.04,12.61 1.36,8.15 -5.08,16.71 -13.43,17.18 -8.1,0.89 -15.71,-6.17 -15.85,-14.22 -0.58,-6.99 4.37,-13.98 11.24,-15.57 m -0.99,3.11 c -5.49,2.21 -8.74,8.64 -7.33,14.39 1.19,6.14 7.63,10.79 13.86,9.5 7.31,-1.17 11.91,-9.73 9.22,-16.55 -1.99,-6.29 -9.62,-10.03 -15.75,-7.34 z"
         id="path982" />
      <path
         fill="#000000"
         opacity="1"
         d="m 549.71,671.83 c 13.39,-13.02 27.34,-25.47 40.93,-38.29 14.02,13.38 28.02,26.77 42.03,40.17 -13.59,13.62 -27.11,27.29 -40.68,40.92 -14.1,-14.26 -28.12,-28.6 -42.28,-42.8 m 3.74,-0.06 c 12.86,13.01 25.68,26.06 38.54,39.07 12.32,-12.33 24.56,-24.74 36.88,-37.07 -12.72,-12.21 -25.49,-24.35 -38.22,-36.54 -12.44,11.47 -24.8,23.02 -37.2,34.54 z"
         id="path984" />
    </g>
  </g>
  <g
     id="#000000ff-4"
     transform="matrix(1.7291618,0,0,1.7291618,-534.09662,-618.98173)">
    <path
       fill="#000000"
       opacity="1"
       d="m 609.5,385.54 c 1.79,-1.44 5.85,-0.46 5.35,2.35 0.09,2.44 -2.9,3.05 -4.69,2.19 -1.86,-0.5 -2.03,-3.5 -0.66,-4.54 z"
       id="path983" />
    <path
       fill="#000000"
       opacity="1"
       d="m 596.69,389.88 c 2.02,-0.38 4.07,-0.61 6.14,-0.68 -0.18,7.95 -0.88,15.88 -1.25,23.83 1.78,-0.3 4.34,0.84 5.61,-0.85 1.21,-3.91 0.87,-8.1 0.9,-12.15 1.95,-0.26 3.93,-0.38 5.91,-0.33 -0.62,5.1 -0.64,10.33 -1.91,15.33 -1.07,2.91 -4.62,2.42 -7.08,2.27 -5.52,-0.58 -11.2,-0.11 -16.58,-1.7 -9.51,1.93 -19.35,1.33 -28.9,3.13 -2.71,0.18 -6.5,1.84 -8.25,-1.12 -1.37,-3.83 -1.57,-7.96 -2.45,-11.92 -1.54,0.55 -3.59,0.55 -4.37,2.28 0.55,5.21 2.01,10.29 2.91,15.45 -5.8,0.87 -11.37,3.41 -17.28,3.28 -6.21,-0.75 -6.02,-8.4 -7.96,-12.88 1.48,-1.15 3.16,-1.96 4.97,-2.49 1.16,3.6 1.32,7.88 4.01,10.75 3.47,0.99 7.03,-1.12 10.49,-1.64 -0.68,-4.55 -3.08,-9.16 -1.94,-13.79 2.47,-5.49 9.5,-4.35 14.25,-6.32 1.79,4.53 -0.54,9.99 2.39,14.32 5.57,-0.05 11.06,-1.3 16.64,-1.49 -1.03,-3.23 0.06,-8.24 -3.93,-9.57 -3.46,-0.42 -6.91,0.38 -10.34,0.64 0.09,-1.56 0.21,-3.11 0.35,-4.65 4.03,0.19 8.02,-0.45 12.04,-0.56 2.05,-0.13 3.87,1.27 4.84,2.99 1.96,3.33 0.77,7.56 2.82,10.87 1.8,-0.53 4.13,-0.19 5.53,-1.59 0.93,-4.02 0.16,-8.21 -0.39,-12.24 1.92,-0.56 3.89,-0.91 5.9,-1.03 0.22,4.27 -0.21,8.57 0.28,12.83 1.32,2.02 4.3,1.41 6.4,1.93 0.13,-7.64 1.06,-15.29 0.25,-22.9 z"
       id="path985" />
    <path
       fill="#000000"
       opacity="1"
       d="m 605.39,391.55 c 1.85,-0.82 5.07,-0.17 4.88,2.39 0.23,2.92 -3.71,3.54 -5.45,1.92 -1.15,-1.11 -0.86,-3.55 0.57,-4.31 z"
       id="path987" />
    <path
       fill="#000000"
       opacity="1"
       d="m 613.31,392.17 c 1.99,-0.73 5.29,0.22 4.69,2.89 -0.05,3.06 -4.8,3.13 -5.93,0.77 -0.28,-1.3 -0.09,-3 1.24,-3.66 z"
       id="path989" />
    <path
       fill="#000000"
       opacity="1"
       d="m 637.28,417.95 c 1.21,-7.49 3.92,-14.72 4.38,-22.33 2.1,-0.03 4.21,0.12 6.28,0.58 -1.62,7.7 -4.28,15.18 -5.35,22.99 1.69,0.15 3.61,1.59 5.19,0.59 2.12,-3.31 1.52,-8.53 5.58,-10.44 4.69,-1.98 9.36,1.5 14.06,1.95 -0.07,0.7 -0.21,2.1 -0.28,2.79 -2.34,3.14 -4.08,6.91 -4.35,10.83 1.3,1.07 2.85,1.81 4.32,2.65 1.62,-3.47 2.18,-7.73 5.11,-10.41 3.99,-2.34 9.53,-0.14 12.14,3.38 2.06,2.63 -0.04,5.68 -1.25,8.15 -1.63,-0.45 -3.24,-0.92 -4.83,-1.41 0.7,-1.8 1.41,-3.6 2.09,-5.4 -1.27,-0.71 -2.49,-1.81 -4.05,-1.61 -1.57,1.6 -2.26,3.83 -2.93,5.91 -0.32,1.35 -1.15,3.15 0.59,3.88 2.05,1.33 4.49,1.82 6.8,2.56 -0.44,1.4 -0.9,2.8 -1.37,4.2 -8.35,-4.03 -17.01,-7.41 -25.86,-10.15 -1.91,-0.51 -3.53,-1.63 -4.98,-2.91 -3.36,0.99 -6.82,-0.28 -9.93,-1.51 -1.65,-0.72 -1.62,-2.8 -1.36,-4.29 m 18.48,-4.26 c -1.5,2.35 -2.37,5.2 -2.47,7.99 1.05,1.14 2.72,1.33 4.07,2 1.09,-3.22 2.16,-6.45 3.21,-9.69 -1.57,-0.16 -3.32,-1.25 -4.81,-0.3 z"
       id="path991" />
    <path
       fill="#000000"
       opacity="1"
       d="m 630.46,402.77 c 1.96,-0.02 3.92,0.04 5.89,0.17 -1.22,6.44 -2.47,12.89 -4.02,19.26 -0.76,3.23 -4.14,6.67 -7.65,5.1 -2.02,-0.86 -1.35,-3.41 -1.09,-5.09 1.39,0.01 3.64,0.34 3.92,-1.6 1.34,-5.87 2.49,-11.82 2.95,-17.84 z"
       id="path993" />
    <path
       fill="#000000"
       opacity="1"
       d="m 487.68,412.24 c 1.56,-1.47 3.35,-2.65 5.32,-3.51 3.34,6.84 5.71,14.18 9.47,20.79 0.7,0.11 2.1,0.34 2.8,0.45 1.19,3.88 -4.4,7.17 -6.75,3.62 -4.12,-6.85 -6.31,-14.73 -10.84,-21.35 z"
       id="path995" />
    <path
       fill="#000000"
       opacity="1"
       d="m 466.1,414.13 c 0.69,-3.03 5.34,-4.26 6.97,-1.17 -0.31,0.42 -0.94,1.26 -1.25,1.68 -1.07,-0.69 -2.16,-1.38 -3.24,-2.03 -0.08,1.62 0.61,3.06 1.32,4.47 1.41,-0.74 2.82,-1.47 4.24,-2.17 1.16,1.83 -1.06,2.4 -2.07,3.2 -1.46,0.84 -2.99,1.54 -4.49,2.27 -0.03,-2.19 -0.97,-4.17 -1.48,-6.25 z"
       id="path997" />
    <path
       fill="#000000"
       opacity="1"
       d="m 479.31,416.61 c 1.39,-1.7 3.08,-3.12 5.18,-3.84 2.85,6.03 5.92,11.96 8.65,18.04 1.45,3.08 0.8,7.1 -2,9.19 -3.54,2.58 -7.57,4.37 -11.34,6.56 -0.52,-1.47 -1.01,-2.95 -1.47,-4.42 3.35,-1.51 7.07,-2.71 9.72,-5.37 1.22,-2.24 -0.3,-4.68 -1.19,-6.74 -2.4,-4.54 -4.45,-9.3 -7.55,-13.42 z"
       id="path999" />
    <path
       fill="#000000"
       opacity="1"
       d="m 698.43,418.51 c 2.23,-1.57 6.59,1.67 4.44,4.24 -2.32,3.65 -8.4,-1.65 -4.44,-4.24 z"
       id="path1001" />
    <path
       fill="#000000"
       opacity="1"
       d="m 583.25,419.15 c 3.74,-2.08 5.87,4.82 1.77,5.17 -3.15,1.09 -4.49,-4.15 -1.77,-5.17 z"
       id="path1003" />
    <path
       fill="#000000"
       opacity="1"
       d="m 588.29,419.41 c 1.96,-1.36 5.29,-0.13 4.64,2.59 0,2.43 -3.13,2.96 -4.75,1.72 -0.64,-1.33 -0.81,-3.08 0.11,-4.31 z"
       id="path1005" />
    <path
       fill="#000000"
       opacity="1"
       d="m 469.49,422.84 c 1.47,-1.5 3.09,-2.85 4.78,-4.09 2.87,4.25 4.91,8.99 7.71,13.28 0.75,-0.07 2.24,-0.23 2.99,-0.31 1.26,3.67 -3.49,7.67 -6.5,4.79 -3.51,-4.2 -5.24,-9.62 -8.98,-13.67 z"
       id="path1007" />
    <path
       fill="#000000"
       opacity="1"
       d="m 567.17,420.22 c 3.4,-2.38 6.38,3.57 2.73,4.94 -3.08,1.42 -5.17,-3.17 -2.73,-4.94 z"
       id="path1009" />
    <path
       fill="#000000"
       opacity="1"
       d="m 703.93,426.05 c -2.08,-1.39 -0.12,-3.72 0.79,-5.15 1.75,0.73 5.16,1.41 4.46,4.06 -0.44,2.62 -3.69,2.87 -5.25,1.09 z"
       id="path1011" />
    <path
       fill="#000000"
       opacity="1"
       d="m 510.2,427.25 c 2.5,-0.95 5,-1.87 7.52,-2.79 0.45,1.29 0.9,2.59 1.36,3.9 -2.47,0.89 -4.94,1.79 -7.4,2.7 -0.37,-0.95 -1.11,-2.85 -1.48,-3.81 z"
       id="path1013" />
    <path
       fill="#000000"
       opacity="1"
       d="m 541.4,427.37 c 3.51,-1.76 5.3,4.9 1.5,5.24 -3.11,1.1 -4.72,-4.59 -1.5,-5.24 z"
       id="path1015-6" />
    <path
       fill="#000000"
       opacity="1"
       d="m 534.39,429.3 c 3.07,-2.86 6.86,2.76 3.34,4.53 -2.79,1.79 -5.4,-2.43 -3.34,-4.53 z"
       id="path1017" />
    <path
       fill="#000000"
       opacity="1"
       d="m 695.99,429.93 c 2.96,-1.29 6.22,-0.37 9.26,0.08 0.37,-0.38 1.11,-1.13 1.48,-1.51 1.76,0.74 3.51,1.54 5.22,2.42 -2.6,4.8 -5.93,9.18 -8.31,14.11 1.38,0.98 2.77,1.97 4.15,2.97 1.24,-3.11 3.84,-5.71 3.96,-9.19 0.09,-1.38 1.6,-2.02 2.43,-2.95 4.48,2.98 11.34,4.16 12.94,10.07 1.06,5.35 -4.36,8.51 -8.77,9.52 1.61,1.11 3.2,2.25 4.77,3.43 3.45,-2.42 5.08,-7.78 9.86,-7.91 5.28,0.18 8.25,5.35 12.56,7.69 -0.64,3.18 -4.16,3.67 -5.92,5.99 -2.35,2.61 -4.71,5.22 -7.1,7.8 -3.25,-3.29 -7.7,-5.62 -9.63,-10.02 -3.45,-0.32 -5.82,-2.96 -8.47,-4.87 -4.42,-3.33 -9.1,-6.32 -13.77,-9.28 -1.54,-0.78 -2.33,-2.31 -3.04,-3.77 -2.58,0.03 -5.59,-0.41 -6.91,-2.93 -1.95,-4.43 0.92,-9.95 5.29,-11.65 m -0.08,10.1 c 4.04,2.22 5.95,-2.87 7.48,-5.62 -3.66,-1.56 -9.28,1.14 -7.48,5.62 m 16.96,11.96 c 3.13,-0.02 7.14,-0.69 8.31,-4.1 0.92,-2.66 -1.86,-4.3 -3.47,-5.81 -2.11,3.01 -4.84,6 -4.84,9.91 m 20.3,4.12 c -2.13,1.7 -3.61,4.04 -5.35,6.11 1.09,1.31 2.26,2.56 3.47,3.78 2.23,-2.54 4.46,-5.09 6.66,-7.65 -1.49,-0.92 -2.81,-2.82 -4.78,-2.24 z"
       id="path1019" />
    <path
       fill="#000000"
       opacity="1"
       d="m 456.43,430.57 c 1.12,-0.94 3.12,-1.63 4.16,-0.15 2.88,2.5 -2.01,6.9 -4.44,4.46 -1.43,-1.17 -1.26,-3.34 0.28,-4.31 z"
       id="path1021" />
    <path
       fill="#000000"
       opacity="1"
       d="m 456.91,442.06 c 1.52,-3.95 5.82,-6.9 10.08,-6.77 2.89,-0.02 3.97,3.06 5.51,4.96 -1.03,1.48 -2.34,2.72 -3.77,3.81 -1.17,-1.54 -2.1,-3.34 -3.75,-4.42 -1.51,0.1 -2.75,1.12 -3.42,2.43 1.13,2.84 2.97,5.5 5.42,7.37 3.03,0.01 5.16,-2.85 7.42,-4.57 1.09,1.01 2.1,2.12 2.91,3.38 -5.68,3.36 -10.97,7.31 -16.38,11.07 1.93,3 3.36,7.95 -0.29,10.27 -2.05,1.51 -3.99,-0.62 -5.14,-2.15 1.39,-1.38 2.36,-2.99 1.75,-5 -2.95,2.1 -6.42,6.26 -10.35,3.74 -3.74,-2.97 -8.99,-7.57 -6.49,-12.88 2.2,-3.79 6.37,-5.82 9.18,-9.11 1.81,0.94 3.21,2.32 3.18,4.5 1.61,2.3 3.19,4.68 5.24,6.63 1.69,0.19 3.08,-1.08 4.58,-1.66 -2.14,-3.65 -6.64,-6.91 -5.68,-11.6 m -12.03,13.79 c 1.4,2.23 3.09,4.37 5.19,5.99 1.64,0.23 2.76,-1.54 4.13,-2.21 -2.15,-2.76 -4.33,-5.5 -6.53,-8.21 -1.13,1.31 -3.42,2.33 -2.79,4.43 z"
       id="path1023" />
    <path
       fill="#000000"
       opacity="1"
       d="m 421.64,458.13 c 1.05,-2.01 2.42,-3.83 4.18,-5.26 4.78,5.02 9.37,10.21 14.17,15.21 1.09,1.53 2.81,1.3 4.33,0.55 2.31,3.22 -1.47,8.33 -5.1,6.14 -6.36,-4.98 -10.94,-11.95 -17.58,-16.64 z"
       id="path1025" />
    <path
       fill="#000000"
       opacity="1"
       d="m 754.15,456.05 c 2,1.02 3.84,2.35 5.43,3.96 -5.3,5.78 -11.51,10.72 -16.36,16.9 4.29,4.8 8.78,9.44 12.73,14.53 1.62,-2.93 6.19,-4.51 5.48,-8.38 -1.4,-3.75 -4.81,-6.25 -7.24,-9.31 1.29,-0.91 2.62,-1.76 3.99,-2.56 2.32,3.78 5.58,6.83 8.18,10.4 1.8,2.4 1.21,5.87 -0.67,8.05 -1.73,2.02 -3.88,3.6 -5.88,5.32 0.19,0.8 0.55,2.39 0.73,3.19 -1.89,0.13 -4.14,0.63 -5.33,-1.26 -5.09,-6.25 -10.42,-12.3 -16.07,-18.05 -1.62,-1.36 -2.17,-3.78 -0.57,-5.4 4.87,-6.08 11.26,-10.86 15.58,-17.39 z"
       id="path1027" />
    <path
       fill="#000000"
       opacity="1"
       d="m 420.98,470.99 c 2.31,-2.03 6.03,-2.36 8.45,-0.33 3.15,2.66 5.84,5.82 8.88,8.62 -6.51,6.69 -12.69,13.71 -18.34,21.15 -1.01,-0.78 -2.02,-1.55 -3.01,-2.32 0.5,-1.01 0.93,-2.04 1.28,-3.11 -0.55,-1.45 -2.03,-2.22 -3.12,-3.21 -4.8,-3.59 -9.25,-7.66 -14.46,-10.66 1.07,-1.91 2.22,-3.78 3.44,-5.6 3.05,1.98 5.79,4.4 8.49,6.84 2.66,-3.87 4.71,-8.33 8.39,-11.38 m 2.51,4.44 c -3.91,1.86 -4.92,6.52 -7.38,9.73 2.15,1.8 4.31,3.59 6.47,5.37 2.92,-3.47 5.92,-6.87 9,-10.2 -2.43,-1.84 -4.53,-5.91 -8.09,-4.9 z"
       id="path1029" />
    <path
       fill="#000000"
       opacity="1"
       d="m 744.39,490.4 c 2.94,-0.99 5.55,3.99 2.33,5.41 -3.36,2.12 -6.43,-4.28 -2.33,-5.41 z"
       id="path1031" />
  </g>
  <g
     id="#000000ff-6"
     transform="matrix(1.9008075,0,0,1.9008075,-632.16571,-708.25433)">
    <path
       fill="#000000"
       opacity="1"
       d="m 749.68,754.76 c 3.94,-5.12 7.6,-10.44 11.17,-15.81 1.34,0.88 2.69,1.75 4.06,2.63 -1.21,1.83 -2.42,3.67 -3.63,5.52 4.8,3.31 9.64,6.57 14.44,9.88 -1.36,1.98 -2.73,3.94 -4.12,5.9 -4.75,-3.4 -9.43,-6.89 -14.17,-10.3 -1.3,1.73 -2.6,3.47 -3.91,5.19 -1.29,-1.02 -2.56,-2.01 -3.84,-3.01 z"
       id="path1001-7" />
    <path
       fill="#000000"
       opacity="1"
       d="m 404.45,748.55 c 4.19,-2.88 8.52,-5.54 12.77,-8.33 1.23,1.81 2.45,3.65 3.66,5.49 -4.13,2.95 -8.45,5.66 -12.47,8.77 -3.26,2.23 0.9,8.13 4.09,5.83 4.26,-2.8 8.2,-6.09 12.35,-9.06 1.31,1.7 2.62,3.41 3.94,5.12 -3.98,3.15 -7.88,6.41 -11.95,9.46 -2.32,1.8 -5.73,2.36 -8.25,0.62 -3.31,-2.28 -5.77,-5.78 -7.11,-9.54 -1.2,-3.1 0.26,-6.62 2.97,-8.36 z"
       id="path1003-0" />
    <path
       fill="#000000"
       opacity="1"
       d="m 413.84,773.45 c 5.77,-4.71 11.5,-9.49 17.25,-14.22 1.57,1.85 3.14,3.71 4.72,5.56 -2.04,4.82 -3.97,9.69 -5.76,14.62 3.44,-3.19 6.82,-6.44 10.23,-9.67 1.41,1.42 2.8,2.86 4.2,4.31 -5.28,5.29 -10.55,10.6 -15.88,15.85 -1.84,-1.9 -3.66,-3.81 -5.47,-5.73 1.73,-4.97 3.66,-9.86 5.6,-14.76 -3.55,3.06 -7.04,6.16 -10.57,9.23 -1.49,-1.7 -2.92,-3.43 -4.32,-5.19 z"
       id="path1005-5" />
    <path
       fill="#000000"
       opacity="1"
       d="m 745.15,760.28 c 7.13,3.18 14.3,6.28 21.63,8.99 -1.47,2.02 -3.01,3.99 -4.71,5.83 -1.29,-0.61 -2.57,-1.2 -3.85,-1.78 -1.57,1.83 -3.16,3.66 -4.74,5.48 0.73,1.29 1.46,2.61 2.18,3.95 -1.61,1.57 -3.18,3.19 -4.71,4.85 -3.63,-7.02 -7.5,-13.92 -11.52,-20.73 1.93,-2.18 3.84,-4.37 5.72,-6.59 m 1.22,7.34 c 1.57,2.47 3.14,4.94 4.73,7.41 1.01,-1.22 2.04,-2.43 3.07,-3.64 -2.62,-1.23 -5.22,-2.49 -7.8,-3.77 z"
       id="path1007-3" />
    <path
       fill="#000000"
       opacity="1"
       d="m 729.48,777.25 c 1.49,-1.47 2.98,-2.94 4.48,-4.4 3.51,3.57 7.17,7 10.66,10.6 2.08,2.09 3.23,5.38 1.84,8.18 -1.82,3.57 -4.98,6.54 -8.67,8.1 -2.89,1.22 -6.11,-0.2 -8.02,-2.47 -3.31,-3.78 -6.47,-7.69 -9.72,-11.51 1.55,-1.37 3.11,-2.72 4.68,-4.07 3.44,3.73 6.65,7.68 10.21,11.31 2.34,2.88 7.35,-1.23 5.32,-4.13 -3.3,-4.12 -7.25,-7.69 -10.78,-11.61 z"
       id="path1009-9" />
    <path
       fill="#000000"
       opacity="1"
       d="m 431.55,792.8 c 5.16,-5.42 10.33,-10.82 15.54,-16.19 1.51,1.41 3.02,2.83 4.53,4.26 -5.01,5.54 -10.01,11.08 -15.02,16.62 -1.7,-1.56 -3.39,-3.12 -5.05,-4.69 z"
       id="path1011-3" />
    <path
       fill="#000000"
       opacity="1"
       d="m 443.18,803.26 c 3.05,-7.16 6.31,-14.23 9.75,-21.21 1.56,1.34 3.12,2.69 4.68,4.05 -2.64,5.49 -5.27,10.98 -7.68,16.58 4.89,-3.6 9.69,-7.34 14.43,-11.14 1.64,1.2 3.28,2.42 4.91,3.64 -6,4.92 -12.16,9.65 -18.45,14.21 -2.6,-1.98 -5.14,-4.04 -7.64,-6.13 z"
       id="path1013-3" />
    <path
       fill="#000000"
       opacity="1"
       d="m 713.23,791.3 c 3.46,-1.42 7.32,0.08 9.82,2.63 2.91,2.92 5.93,6.64 5.49,11.04 -0.7,4.39 -4.52,7.39 -8.11,9.53 -3.21,2 -7.73,2.48 -10.72,-0.18 -3.46,-3.13 -6.36,-7.51 -6.47,-12.3 0.4,-5.33 5.5,-8.79 9.99,-10.72 m -0.88,5.98 c -1.66,0.89 -3.18,2.64 -2.78,4.66 0.72,2.93 2.56,5.59 4.92,7.47 2.54,1.95 6.05,-0.09 7.29,-2.6 0.95,-2.9 -1.25,-5.54 -2.98,-7.61 -1.51,-1.84 -4.17,-3.48 -6.45,-1.92 z"
       id="path1015-4" />
    <path
       fill="#000000"
       opacity="1"
       d="m 457.98,814.56 c 4.26,-6.14 8.6,-12.21 12.88,-18.32 4.23,2.94 8.54,5.76 12.96,8.43 -0.81,1.29 -1.6,2.61 -2.39,3.94 -2.74,-1.68 -5.46,-3.39 -8.16,-5.13 -0.75,1.13 -1.49,2.29 -2.23,3.44 2.41,1.56 4.86,3.09 7.26,4.71 -0.81,1.23 -1.6,2.47 -2.38,3.73 -2.48,-1.51 -4.94,-3.06 -7.35,-4.65 -0.85,1.24 -1.7,2.47 -2.55,3.72 2.85,1.89 5.75,3.7 8.67,5.48 -0.8,1.3 -1.59,2.62 -2.37,3.95 -4.89,-2.93 -9.66,-6.05 -14.34,-9.3 z"
       id="path1017-9" />
    <path
       fill="#000000"
       opacity="1"
       d="m 692.72,805.15 c 1.7,-1.06 3.42,-2.11 5.14,-3.15 4,6.3 7.98,12.62 11.98,18.94 -1.87,1.14 -3.71,2.31 -5.52,3.52 -1.89,-2.62 -3.38,-5.49 -5.05,-8.23 -1.95,1.09 -3.88,2.2 -5.81,3.31 1.55,2.78 3.08,5.56 4.6,8.36 -1.94,1.06 -3.9,2.09 -5.87,3.09 -3.41,-6.64 -6.83,-13.28 -10.23,-19.92 1.76,-0.94 3.52,-1.89 5.3,-2.81 1.27,2.32 2.56,4.63 3.84,6.96 1.89,-1.06 3.78,-2.13 5.65,-3.22 -1.35,-2.28 -2.69,-4.58 -4.03,-6.85 z"
       id="path1019-8" />
    <path
       fill="#000000"
       opacity="1"
       d="m 474.32,825.06 c 3.76,-6.46 7.51,-12.94 11.32,-19.37 3.79,2.51 8.36,3.9 11.68,7.08 4.1,4.31 0.37,12.45 -5.66,11.98 0.23,3.26 0.48,6.52 0.77,9.78 -2.08,-0.99 -4.15,-1.98 -6.22,-2.97 -0.24,-3.09 0.23,-6.26 -0.44,-9.29 -0.44,-0.26 -1.34,-0.78 -1.78,-1.05 -1.28,2.38 -2.59,4.73 -3.89,7.1 -1.94,-1.07 -3.87,-2.16 -5.78,-3.26 m 11.7,-7.5 c 2.01,1.07 5.41,3.46 6.74,0.24 1.56,-2.87 -2.2,-4.1 -4.08,-5.14 -0.91,1.62 -1.8,3.25 -2.66,4.9 z"
       id="path1021-8" />
    <path
       fill="#000000"
       opacity="1"
       d="m 663.68,821.67 c 1.92,-4.35 6.91,-6.41 11.33,-7.11 3.26,-0.48 5.9,1.74 7.96,3.96 -1.7,0.89 -3.41,1.74 -5.15,2.55 -2.9,-2.91 -9.01,-0.42 -8.3,3.87 0.43,2.64 1.41,5.31 3.21,7.34 3.27,3.33 10.18,-0.87 8.04,-5.42 -1.65,0.57 -3.26,1.25 -4.85,1.96 -0.56,-1.27 -1.12,-2.53 -1.67,-3.78 3.29,-1.49 6.58,-3 9.83,-4.6 1.79,3.53 3.89,7.77 2.06,11.72 -2.15,4.05 -6.89,5.91 -11.17,6.73 -3.79,0.78 -7.54,-1.52 -9.19,-4.89 -1.9,-3.72 -3.5,-8.19 -2.1,-12.33 z"
       id="path1023-3" />
    <path
       fill="#000000"
       opacity="1"
       d="m 500.44,824.82 c -0.64,-4.1 3.1,-8.92 7.52,-8.02 3.25,0.61 6.67,1.85 8.91,4.41 1.57,1.8 0.98,4.31 0.59,6.44 -1.69,-0.61 -3.36,-1.19 -5.03,-1.8 1.25,-3.36 -4.62,-6.4 -5.95,-2.82 1.04,3.16 4.91,4.17 6.82,6.79 2.75,2.93 1.7,7.87 -1.23,10.27 -2.36,1.78 -5.56,1.08 -8.14,0.22 -2.71,-1.04 -5.66,-2.29 -7.28,-4.83 -1.2,-1.84 -0.49,-4.03 0,-5.95 1.66,0.69 3.33,1.37 5.01,2.04 -0.9,3.57 5.15,6.91 6.96,3.44 -0.72,-4.6 -7.17,-5.54 -8.18,-10.19 z"
       id="path1025-2" />
    <path
       fill="#000000"
       opacity="1"
       d="m 522.18,822.46 c 1.87,0.59 3.75,1.2 5.64,1.81 -2.22,7.13 -4.44,14.26 -6.68,21.39 -2.08,-0.67 -4.15,-1.32 -6.22,-1.99 2.37,-7.09 4.85,-14.14 7.26,-21.21 z"
       id="path1027-4" />
    <path
       fill="#000000"
       opacity="1"
       d="m 646.26,825.14 c 2.59,-0.8 5.18,-1.61 7.77,-2.42 4.27,6.52 8.71,12.92 13.27,19.24 -2.15,0.77 -4.3,1.52 -6.46,2.26 -0.76,-1.2 -1.52,-2.4 -2.27,-3.57 -2.21,0.61 -4.4,1.28 -6.57,1.99 0.02,1.42 0.06,2.85 0.1,4.29 -2.07,0.58 -4.15,1.13 -6.22,1.7 0.28,-7.83 0.57,-15.66 0.38,-23.49 m 5.3,4.36 c 0.1,2.88 0.22,5.78 0.33,8.68 1.39,-0.45 2.8,-0.88 4.22,-1.3 -1.51,-2.47 -3.03,-4.94 -4.55,-7.38 z"
       id="path1029-2" />
    <path
       fill="#000000"
       opacity="1"
       d="m 530.21,825.01 c 5.59,1.6 11.23,3.02 16.93,4.21 -0.34,1.58 -0.67,3.16 -1,4.75 -1.93,-0.41 -3.85,-0.82 -5.77,-1.23 -1.34,5.68 -2.69,11.35 -4.04,17.03 -2.11,-0.52 -4.21,-1.04 -6.3,-1.58 1.48,-5.65 3.04,-11.28 4.49,-16.93 -1.89,-0.53 -3.77,-1.04 -5.65,-1.56 0.45,-1.57 0.89,-3.14 1.34,-4.69 z"
       id="path1031-9" />
    <path
       fill="#000000"
       opacity="1"
       d="m 625.95,830.01 c 1.89,-0.38 3.8,-0.75 5.7,-1.11 1.24,5.69 2.47,11.39 3.68,17.1 2.84,-0.62 5.68,-1.28 8.51,-1.97 0.39,1.57 0.79,3.16 1.2,4.75 -4.97,1.2 -9.96,2.32 -14.99,3.24 -1.38,-7.33 -2.75,-14.67 -4.1,-22.01 z"
       id="path1033" />
    <path
       fill="#000000"
       opacity="1"
       d="m 547.4,829.28 c 2.11,0.38 4.23,0.77 6.35,1.17 0.75,2.78 1.53,5.56 2.35,8.34 1.61,-2.4 3.18,-4.81 4.73,-7.25 2.04,0.24 4.09,0.48 6.15,0.74 -2.75,4.43 -5.85,8.63 -8.7,12.99 -0.78,2.7 -0.89,5.55 -1.34,8.33 -2.04,-0.32 -4.08,-0.63 -6.11,-0.93 0.25,-3.41 2,-6.91 0.69,-10.26 -1.52,-4.33 -2.85,-8.72 -4.12,-13.13 z"
       id="path1035" />
    <path
       fill="#000000"
       opacity="1"
       d="m 600.48,833.01 c 4.98,-0.33 9.96,-0.79 14.92,-1.4 0.18,1.5 0.38,3.02 0.58,4.54 -3.1,0.36 -6.2,0.71 -9.3,1 0.11,1.36 0.23,2.74 0.35,4.13 2.77,-0.29 5.54,-0.57 8.32,-0.87 0.18,1.5 0.36,3.02 0.56,4.55 -2.83,0.31 -5.65,0.6 -8.48,0.88 0.27,3.08 0.52,6.17 0.79,9.26 -2.15,0.15 -4.29,0.3 -6.42,0.45 -0.44,-7.52 -0.89,-15.03 -1.32,-22.54 z"
       id="path1037" />
    <path
       fill="#000000"
       opacity="1"
       d="m 581.37,833.53 c 4.19,-1.22 9.24,-1.34 12.98,1.2 3.59,2.9 3.9,8.01 3.77,12.27 0,3.87 -2.26,7.89 -6.22,8.82 -4.32,0.99 -9.37,1.1 -13.18,-1.46 -3.47,-2.6 -3.58,-7.42 -3.19,-11.33 0.27,-3.82 1.9,-8.17 5.84,-9.5 m 2.9,4.68 c -2.87,2.24 -2.51,6.53 -2.11,9.78 0.45,4.33 7.51,4.97 8.89,0.95 0.91,-2.88 0.84,-6.11 -0.2,-8.93 -1.01,-2.51 -4.41,-3.01 -6.58,-1.8 z"
       id="path1039" />
  </g>
</svg>
